<mxfile host="drawio-plugin" modified="2022-02-22T21:53:49.610Z" agent="5.0 (Windows NT 6.2; Win64; x64) AppleWebKit/537.36 (KHTML, like Gecko) Chrome/89.0.4389.114 Safari/537.36" etag="6KCsaJ_JAU-ltjn6bIQK" version="15.5.4" type="embed"><diagram id="23iRSUPoRavnBvh4doch" name="Page-1"><mxGraphModel dx="1729" dy="1346" grid="0" gridSize="10" guides="1" tooltips="1" connect="1" arrows="1" fold="1" page="0" pageScale="1" pageWidth="500" pageHeight="400" background="#FFFFFF" math="0" shadow="0"><root><mxCell id="0"/><mxCell id="1" style="" parent="0"/><mxCell id="65" value="Private Network" style="rounded=0;whiteSpace=wrap;html=1;fontSize=13;fontColor=#000000;strokeColor=#000000;strokeWidth=1;fillColor=none;align=left;verticalAlign=top;fontStyle=3;spacingLeft=12;spacingTop=4;" parent="1" vertex="1"><mxGeometry x="404" y="65" width="1119" height="968" as="geometry"/></mxCell><mxCell id="64" value="" style="rounded=0;whiteSpace=wrap;html=1;fontSize=13;fontColor=#FFFFFF;strokeColor=#7EA6E0;strokeWidth=2;fillColor=none;align=left;dashed=1;" parent="1" vertex="1"><mxGeometry x="491" y="130" width="965" height="658" as="geometry"/></mxCell><mxCell id="5" value="&lt;font color=&quot;#000000&quot; style=&quot;font-size: 13px;&quot;&gt;&lt;b style=&quot;font-size: 13px;&quot;&gt;Public Network&lt;/b&gt;&lt;/font&gt;" style="outlineConnect=0;dashed=0;verticalLabelPosition=bottom;verticalAlign=top;align=center;html=1;shape=mxgraph.aws3.internet_3;fillColor=#D2D3D3;gradientColor=none;fontSize=13;" parent="1" vertex="1"><mxGeometry x="181" y="410" width="79.5" height="54" as="geometry"/></mxCell><mxCell id="8" value="" style="edgeStyle=orthogonalEdgeStyle;html=1;endArrow=block;elbow=vertical;startArrow=none;endFill=1;strokeColor=#545B64;rounded=0;fontColor=#000000;exitX=1;exitY=0.7;exitDx=0;exitDy=0;exitPerimeter=0;strokeWidth=3;" parent="1" source="5" target="9" edge="1"><mxGeometry width="100" relative="1" as="geometry"><mxPoint x="895" y="420" as="sourcePoint"/><mxPoint x="361" y="448" as="targetPoint"/></mxGeometry></mxCell><mxCell id="9" value="&lt;b style=&quot;font-size: 13px;&quot;&gt;API Gateway&lt;/b&gt;" style="sketch=0;outlineConnect=0;fontColor=#232F3E;gradientColor=none;fillColor=#A166FF;strokeColor=none;dashed=0;verticalLabelPosition=bottom;verticalAlign=top;align=center;html=1;fontSize=13;fontStyle=0;aspect=fixed;pointerEvents=1;shape=mxgraph.aws4.network_load_balancer;labelBackgroundColor=#FFFFFF;" parent="1" vertex="1"><mxGeometry x="368" y="408" width="78" height="78" as="geometry"/></mxCell><mxCell id="32" value="/customer" style="html=1;endArrow=block;elbow=vertical;startArrow=none;endFill=1;strokeColor=#545B64;rounded=0;fontColor=#000000;strokeWidth=3;entryX=0;entryY=0.5;entryDx=0;entryDy=0;labelBackgroundColor=#FFFFFF;fontStyle=1;fontSize=13;" parent="1" source="9" target="13" edge="1"><mxGeometry width="100" relative="1" as="geometry"><mxPoint x="452" y="637" as="sourcePoint"/><mxPoint x="378" y="457.00000000000045" as="targetPoint"/></mxGeometry></mxCell><mxCell id="33" value="/fraud" style="html=1;endArrow=block;elbow=vertical;startArrow=none;endFill=1;strokeColor=#545B64;rounded=0;fontColor=#000000;strokeWidth=3;entryX=0;entryY=0.5;entryDx=0;entryDy=0;labelBackgroundColor=#FFFFFF;fontStyle=1;fontSize=13;" parent="1" source="9" target="11" edge="1"><mxGeometry width="100" relative="1" as="geometry"><mxPoint x="474" y="415" as="sourcePoint"/><mxPoint x="624" y="664" as="targetPoint"/></mxGeometry></mxCell><mxCell id="34" value="Sync HTTP&amp;nbsp;&lt;br style=&quot;font-size: 13px&quot;&gt;Communication" style="edgeStyle=orthogonalEdgeStyle;html=1;endArrow=block;elbow=vertical;startArrow=none;endFill=1;strokeColor=#545B64;rounded=0;fontColor=#000000;exitX=0.5;exitY=0;exitDx=0;exitDy=0;strokeWidth=3;entryX=0.5;entryY=1;entryDx=0;entryDy=0;labelBackgroundColor=#FFFFFF;fontStyle=1;fontSize=13;" parent="1" source="13" target="11" edge="1"><mxGeometry width="100" relative="1" as="geometry"><mxPoint x="270.5000000000002" y="457.8000000000002" as="sourcePoint"/><mxPoint x="378" y="457.00000000000045" as="targetPoint"/></mxGeometry></mxCell><mxCell id="35" value="Async Message" style="html=1;endArrow=block;elbow=vertical;startArrow=none;endFill=1;strokeColor=#545B64;rounded=0;fontColor=#000000;exitX=1;exitY=0.25;exitDx=0;exitDy=0;strokeWidth=3;entryX=0.5;entryY=1;entryDx=0;entryDy=0;labelBackgroundColor=#FFFFFF;fontStyle=1;fontSize=13;entryPerimeter=0;" parent="1" source="13" target="18" edge="1"><mxGeometry width="100" relative="1" as="geometry"><mxPoint x="811" y="637.5" as="sourcePoint"/><mxPoint x="696.5" y="343" as="targetPoint"/></mxGeometry></mxCell><mxCell id="42" value="Async Event" style="html=1;endArrow=block;elbow=vertical;startArrow=none;endFill=1;strokeColor=#545B64;rounded=0;fontColor=#000000;exitX=1;exitY=0.75;exitDx=0;exitDy=0;strokeWidth=3;entryX=0.5;entryY=1;entryDx=0;entryDy=0;labelBackgroundColor=#FFFFFF;fontStyle=1;fontSize=13;entryPerimeter=0;" parent="1" source="11" target="20" edge="1"><mxGeometry width="100" relative="1" as="geometry"><mxPoint x="769" y="664" as="sourcePoint"/><mxPoint x="938" y="566" as="targetPoint"/></mxGeometry></mxCell><mxCell id="46" value="" style="html=1;endArrow=block;elbow=vertical;startArrow=none;endFill=1;strokeColor=#545B64;rounded=0;fontColor=#000000;exitX=0.75;exitY=0;exitDx=0;exitDy=0;strokeWidth=3;entryX=0;entryY=1;entryDx=0;entryDy=-15;entryPerimeter=0;shape=link;" parent="1" source="11" target="28" edge="1"><mxGeometry width="100" relative="1" as="geometry"><mxPoint x="270.5000000000002" y="457.8000000000002" as="sourcePoint"/><mxPoint x="378" y="457.00000000000045" as="targetPoint"/></mxGeometry></mxCell><mxCell id="47" value="" style="html=1;endArrow=block;elbow=vertical;startArrow=none;endFill=1;strokeColor=#545B64;rounded=0;fontColor=#000000;exitX=1;exitY=0.75;exitDx=0;exitDy=0;strokeWidth=3;entryX=0;entryY=0.5;entryDx=0;entryDy=0;entryPerimeter=0;shape=link;" parent="1" source="13" target="30" edge="1"><mxGeometry width="100" relative="1" as="geometry"><mxPoint x="769" y="298" as="sourcePoint"/><mxPoint x="878" y="265.5" as="targetPoint"/></mxGeometry></mxCell><mxCell id="49" value="" style="group" parent="1" vertex="1" connectable="0"><mxGeometry x="614" y="273" width="145" height="60" as="geometry"/></mxCell><mxCell id="11" value="&lt;font color=&quot;#ffffff&quot; style=&quot;font-size: 13px;&quot;&gt;Fraud&lt;/font&gt;" style="rounded=1;whiteSpace=wrap;html=1;fontColor=#000000;strokeColor=#000000;align=left;fontStyle=1;spacingLeft=28;fontSize=13;" parent="49" vertex="1"><mxGeometry width="145" height="60" as="geometry"/></mxCell><mxCell id="23" value="" style="shape=image;verticalLabelPosition=bottom;labelBackgroundColor=#ffffff;verticalAlign=top;aspect=fixed;imageAspect=0;image=data:image/svg+xml,PHN2ZyB4bWxucz0iaHR0cDovL3d3dy53My5vcmcvMjAwMC9zdmciIHdpZHRoPSI2NC4wNTQ1NTc4MDAyOTI5NyIgaGVpZ2h0PSI2My45ODUyNDg1NjU2NzM4MyIgdmlld0JveD0iLTAuMDU0MjEyMDE1MTIyMTc1MjIgLTAuMDE4NTM0NzYyNzg0ODM4Njc2IDY0LjA1NDU1NzgwMDI5Mjk3IDYzLjk4NTI0ODU2NTY3MzgzIj48cGF0aCBkPSJNNTguMiAzLjM2NWEyOS41MDMgMjkuNTAzIDAgMCAxLTMuNDE5IDYuMDY0QTMyLjA5NCAzMi4wOTQgMCAxIDAgOS45NjUgNTUuMzcybDEuMTg2IDEuMDQ3YTMyLjA4IDMyLjA4IDAgMCAwIDUyLjY3LTIyLjI1M2MuODc1LTguMTctMS41MjQtMTguNTEtNS42Mi0zMC44ek0xNC41MyA1NS41NThhMi43NDQgMi43NDQgMCAxIDEtLjQwNC0zLjg1NyAyLjc0NCAyLjc0NCAwIDAgMSAuNDA0IDMuODU3em00My41MzgtOS42MWMtNy45MiAxMC41NS0yNC44MyA2Ljk5LTM1LjY3MiA3LjUwMiAwIDAtMS45MjIuMTEzLTMuODU3LjQzIDAgMCAuNzMtLjMxIDEuNjYzLS42NjMgNy42MTQtMi42NSAxMS4yMTMtMy4xNiAxNS44MzgtNS41NCA4LjcwOC00LjQyNyAxNy4zMjItMTQuMTIyIDE5LjExMi0yNC4yLTMuMzEzIDkuNjk1LTEzLjM3MyAxOC4wMzItMjIuNTMgMjEuNDE4LTYuMjc2IDIuMzEzLTE3LjYxNCA0LjU2Ni0xNy42MTQgNC41NjZsLS40NTctLjI0NWMtNy43MTQtMy43NS03Ljk1Mi0yMC40NTcgNi4wNzctMjUuODQ1IDYuMTQzLTIuMzY2IDEyLjAyLTEuMDY3IDE4LjY1NC0yLjY1IDcuMDg0LTEuNjgzIDE1LjI4LTYuOTkgMTguNjE1LTEzLjkxNiAzLjczIDExLjA4IDguMjI0IDI4LjQyMi4xNjYgMzkuMTV6IiBmaWxsPSIjNjhiZDQ1Ii8+PC9zdmc+;imageBackground=default;" parent="49" vertex="1"><mxGeometry x="101" y="14" width="32" height="32" as="geometry"/></mxCell><mxCell id="50" value="" style="group" parent="1" vertex="1" connectable="0"><mxGeometry x="614" y="624" width="145" height="60" as="geometry"/></mxCell><mxCell id="13" value="&lt;font color=&quot;#ffffff&quot; style=&quot;font-size: 13px;&quot;&gt;Customer&lt;/font&gt;" style="rounded=1;whiteSpace=wrap;html=1;fontColor=#000000;strokeColor=#000000;align=left;spacingLeft=16;fontStyle=1;fontSize=13;" parent="50" vertex="1"><mxGeometry width="145" height="60" as="geometry"/></mxCell><mxCell id="21" value="" style="shape=image;verticalLabelPosition=bottom;labelBackgroundColor=#ffffff;verticalAlign=top;aspect=fixed;imageAspect=0;image=data:image/svg+xml,PHN2ZyB4bWxucz0iaHR0cDovL3d3dy53My5vcmcvMjAwMC9zdmciIHdpZHRoPSI2NC4wNTQ1NTc4MDAyOTI5NyIgaGVpZ2h0PSI2My45ODUyNDg1NjU2NzM4MyIgdmlld0JveD0iLTAuMDU0MjEyMDE1MTIyMTc1MjIgLTAuMDE4NTM0NzYyNzg0ODM4Njc2IDY0LjA1NDU1NzgwMDI5Mjk3IDYzLjk4NTI0ODU2NTY3MzgzIj48cGF0aCBkPSJNNTguMiAzLjM2NWEyOS41MDMgMjkuNTAzIDAgMCAxLTMuNDE5IDYuMDY0QTMyLjA5NCAzMi4wOTQgMCAxIDAgOS45NjUgNTUuMzcybDEuMTg2IDEuMDQ3YTMyLjA4IDMyLjA4IDAgMCAwIDUyLjY3LTIyLjI1M2MuODc1LTguMTctMS41MjQtMTguNTEtNS42Mi0zMC44ek0xNC41MyA1NS41NThhMi43NDQgMi43NDQgMCAxIDEtLjQwNC0zLjg1NyAyLjc0NCAyLjc0NCAwIDAgMSAuNDA0IDMuODU3em00My41MzgtOS42MWMtNy45MiAxMC41NS0yNC44MyA2Ljk5LTM1LjY3MiA3LjUwMiAwIDAtMS45MjIuMTEzLTMuODU3LjQzIDAgMCAuNzMtLjMxIDEuNjYzLS42NjMgNy42MTQtMi42NSAxMS4yMTMtMy4xNiAxNS44MzgtNS41NCA4LjcwOC00LjQyNyAxNy4zMjItMTQuMTIyIDE5LjExMi0yNC4yLTMuMzEzIDkuNjk1LTEzLjM3MyAxOC4wMzItMjIuNTMgMjEuNDE4LTYuMjc2IDIuMzEzLTE3LjYxNCA0LjU2Ni0xNy42MTQgNC41NjZsLS40NTctLjI0NWMtNy43MTQtMy43NS03Ljk1Mi0yMC40NTcgNi4wNzctMjUuODQ1IDYuMTQzLTIuMzY2IDEyLjAyLTEuMDY3IDE4LjY1NC0yLjY1IDcuMDg0LTEuNjgzIDE1LjI4LTYuOTkgMTguNjE1LTEzLjkxNiAzLjczIDExLjA4IDguMjI0IDI4LjQyMi4xNjYgMzkuMTV6IiBmaWxsPSIjNjhiZDQ1Ii8+PC9zdmc+;imageBackground=default;" parent="50" vertex="1"><mxGeometry x="96" y="16" width="32" height="32" as="geometry"/></mxCell><mxCell id="51" value="" style="group" parent="1" vertex="1" connectable="0"><mxGeometry x="928" y="526" width="161" height="60" as="geometry"/></mxCell><mxCell id="18" value="" style="shape=cylinder3;whiteSpace=wrap;html=1;boundedLbl=1;backgroundOutline=1;size=15;fontColor=#FFFFFF;strokeColor=#000000;fillColor=none;strokeWidth=3;rotation=90;" parent="51" vertex="1"><mxGeometry x="50.5" y="-50.5" width="60" height="161" as="geometry"/></mxCell><mxCell id="19" value="" style="shape=image;verticalLabelPosition=bottom;labelBackgroundColor=#ffffff;verticalAlign=top;aspect=fixed;imageAspect=0;image=data:image/svg+xml,PHN2ZyB4bWxucz0iaHR0cDovL3d3dy53My5vcmcvMjAwMC9zdmciIHZpZXdCb3g9Ii0xNjQuODUwOTUyMTQ4NDM3NSAyOTcuMjQ1MDI1NjM0NzY1NiAxMTIuMzE5NTAzNzg0MTc5NjkgMjkuMzExMDA0NjM4NjcxODc1IiB3aWR0aD0iMTEyLjMxOTUwMzc4NDE3OTY5IiBoZWlnaHQ9IjI5LjMxMTAwNDYzODY3MTg3NSI+PHBhdGggZD0iTS0xMzguMjgyIDMwOC45NjdoLTkuMjFjLS40NjUgMC0uODMzLS4zOC0uODMzLS44MzN2LTkuNmMwLS43MTQtLjU3NC0xLjI4OC0xLjI4OC0xLjI4OGgtMy4yOWMtLjcxNCAwLTEuMjg4LjU3NC0xLjI4OCAxLjI4OHY5LjUzNmMwIC40OTgtLjQuODk4LS44OTguODk4bC0zLjAyLjAxYS44OS44OSAwIDAgMS0uODk4LS44OThsLjAyMi05LjU0N2MwLS43MTQtLjU3NC0xLjI4OC0xLjI4OC0xLjI4OGgtMy4yOWMtLjcxNCAwLTEuMjg4LjU3NC0xLjI4OCAxLjI4OHYyNi44NzZhMS4xNSAxLjE1IDAgMCAwIDEuMTQ3IDEuMTQ3aDI1LjQyNmExLjE1IDEuMTUgMCAwIDAgMS4xNDctMS4xNDd2LTE1LjI5NGExLjE0IDEuMTQgMCAwIDAtMS4xNDctMS4xNDd6bS00LjMyIDEwLjA4OGMwIC44MjMtLjY3IDEuNDk0LTEuNDk0IDEuNDk0aC0yLjU5OGMtLjgyMyAwLTEuNDk0LS42Ny0xLjQ5NC0xLjQ5NHYtMi41OThjMC0uODIzLjY3LTEuNDk0IDEuNDk0LTEuNDk0aDIuNTk4Yy44MjMgMCAxLjQ5NC42NyAxLjQ5NCAxLjQ5NHoiIGZpbGw9IiNmNjAiLz48cGF0aCBkPSJNLTgwLjMwNCAzMjQuMjk0Yy42ODUuMjY0IDEuMTQzLS4wNSAxLjE0My0uNzg1di0xMy44N2MuMjQuMTU3LjI0NS4zNTIuMjk1LjUxNWw0LjI2NiAxMy41NzZjLjEzMi40Mi4yOS42NC43NDguNTg0LjQ0LS4wNTcuOTM2LjE3NiAxLjE0My0uNTRsMS44NDctNS45NzQgMi42NjQtOC41YS40Ny40NyAwIDAgMCAuMDk0LjAxM3YuNzM1bC0uMDEzIDEzLjU3NmMwIC41MjguMTIuNzA0LjY3OC43MTYuNjQuMDA2LjY5Ny0uMjk1LjY5LS44MDRsLS4wMDYtMTQuNGMwLTEuNjIgMC0xLjYwMi0xLjY0LTEuNjI3LS41MTUtLjAwNi0uNzczLjEyNi0uOTMuNjQ3bC00LjI0NyAxMy43ODNjLS4yNS0uMTItLjI0NS0uMzA4LS4yODMtLjQ0bC0zLjc3Ni0xMi4yODhjLS41Mi0xLjcyLS41LTEuNzE1LTIuMjg3LTEuNzEtLjQ5NiAwLS42MTYuMTc2LS42MS42MzVsLjAxMyAxNS40OThtMjQuNi0uNTM0YzEuMzctMS41NzcgMS44NDctMy4yOTggMi4wMy01LjEyNi4yNDUtMi40ODguMTg4LTQuOTM4LS43LTcuMzEyLTEuMTc1LTMuMS00LjM5OC00LjM1NC03LjE1NS0yLjc0NS0xLjQ5Ljg2Ny0yLjIgMi4yODctMi42NCAzLjg3Ni0uNSAxLjc4NC0uNTQgMy42LS40MzMgNS40NC4wNyAxLjEwNi4yMjYgMi4xODYuNTYgMy4yMzUuODY3IDIuNjkgMi40OTQgMy44NjQgNS4zMDggMy44NjRsNS43MTcuMDJjLjY0LjAxMy42ODUtLjI2NC42OS0uNzczLjAwNi0uNTI4LS4xNy0uNjg1LS42NzgtLjYzNGwtMi42OS4xNTd6bS03MC45Ny03LjA0MmMuNDY1LS4yMjYuODczLS4zNTggMS4yNDQtLjYwMyAxLjQtLjkwNSAyLjA0Mi0yLjc3IDEuNjItNC43MTItLjM3Ny0xLjczNC0xLjU5LTIuNzk2LTMuNTE4LTMuMDk3LTEuNDEzLS4yMi0yLjg0Ni0uMDU3LTQuMjYtLjEzMi0uNTcyLS4wMy0uNzMuMTMyLS43My43djE1LjM2YzAgLjU2LjEyNi43NDguNy43MzUuNTQtLjAxMy43NTQtLjEuNzQtLjdsLS4wMjUtNi4zNGMtLjAwNi0uNDE1LjEtLjU3OC41MzQtLjU0Ny40NzcuMDM4Ljk2LjAwNiAxLjQ0NS4wMDYgMS42ODQuMDEzIDIuNTUuNjM1IDIuOTcgMi4yOGwuOTM2IDQuMzY2Yy4xMjYuNzIyLjM3Ny45OTMgMS4xMzcuOTM2LjUwMy0uMDM4LjUtLjIwNy40MTUtLjU3OGwtLjg3My00LjNjLS4yODMtMS40NC0uNjY2LTIuODI3LTIuMzUtMy4zNjd6bTI1LjQ5My0xLjY5NnYtLjY2NmwuMDEyLTUuNTFjLjAwNi0uNDg0LS4wODItLjY4NS0uNjM1LS42NzgtLjUyLjAwNi0uNjUzLjE1Ny0uNjQ3LjY2NmwuMDEyIDExLjA5NGExMy45MiAxMy45MiAwIDAgMCAuMDg4IDEuNDQ1Yy4yNDUgMi4yMSAxLjQyNiAzLjU4IDMuMjk4IDMuODQ1IDEuODk3LjI3IDMuNjk0LS43NiA0LjM1NC0yLjcyNi44MzYtMi40Ny44MTctNC45NzYtLjM1Mi03LjM2My0uNjUzLTEuMzM4LTEuNzc4LTIuMDg2LTMuMzMtMS45ODUtMS4yNjMuMDc1LTIuMDguODIzLTIuODAyIDEuODc4em0tMTAuMDIuMjgzbC4wMTItNi40NDZjLjAwNi0uNDctLjA1Ny0uNjktLjYyMi0uNjktLjU2IDAtLjYyMi4yLS42MjIuNjc4bC4wMDYgMTEuN2MwIC43MTYuMTIgMS40Mi4zNTIgMi4wOTIuNDQgMS4yNyAxLjIyNSAyLjE5MiAyLjYwNyAyLjQ4OCAyLjA5Mi40NDYgNC4wMDItLjU0IDQuNzM3LTIuNTk1Ljg0Mi0yLjM1Ljc3My00LjczNy0uMTM4LTcuMDYtLjQwMi0xLjAxOC0xLjEzLTEuNzg0LTIuMTgtMi4xNzQtMS41ODMtLjU5LTIuOTcuMDQ0LTQuMTUzIDEuOTk4em0tNC4zMjggOC4wNDdsLS4wMDYgMS4wMWMtLjA2My41LjE0NC42MDMuNjE2LjYxNi41MjguMDEyLjU4NC0uMjA3LjU3OC0uNjQ3bC0uMDEzLTcuODUzYzAtLjI5NS0uMDMtLjU5Ny0uMDg4LS44ODYtLjMwOC0xLjU3Ny0xLjMyNi0yLjQxMi0zLjAwMy0yLjQ3LTIuMzA2LS4wODItMy43MzguNjktNC4xNTMgMi4yNjgtLjA2My4yNDUtLjI5NS41OTcuMDk0Ljc3My40ODQuMjIgMS4yMzgtLjAzOCAxLjM2My0uNDI3LjE4OC0uNTc4LjUyLTEuMDA1IDEuMS0xLjI0NCAxLjc3OC0uNzMgMy4zNTUuMjUgMy40NjggMi4xNTVsLjAzOC42ODVjLjAzIDEuMDI0LjAzIDEuMDEtLjk4IDEuMDg3LTEuNC4xMDctMi43OTYuMjQtNC4wMTQgMS4wNDMtMS4yODguODU0LTEuNzQ2IDIuNTQ0LTEuMTMgNC4xMS40OTYgMS4yNjMgMS43NzggMS44NTMgMy4zNjcgMS41ODMgMS4xMDYtLjE3NiAxLjk0Ny0uNzYgMi43NjQtMS44MDN6bTI5LjctMTMuMzdjLS44NjcuMzQtMS40Mi43OTgtMS4yMjUgMS43NTMuMDMuMTU3LjAwNi4zMi4wMDYuNDg0IDAgMS4xNTYgMCAxLjE3NS0xLjEzIDEuMTU2LS40MjctLjAwNi0uNjYuMDMtLjY2LjU3MiAwIC41MTUuMTQ0LjcyMi42Ni42NC4xMzItLjAyLjI3Ni4wMi40MTUtLjAwNi42NC0uMTIuNzQuMTgyLjczNS43NTRsLjAxMyA3LjI5NGMuMDMgMS43Ljg5MiAyLjUxMyAyLjU3IDIuNi4zNjQuMDIuNzMtLjAzOCAxLjEtLjA0NC44MDQtLjAxMy41MDMtLjYxNi41MS0xIC4wMTMtLjU4NC0uNDA4LS4yNjQtLjYzNS0uMjItMS40NDUuMjQ1LTIuMzA2LS4zMi0yLjMyNC0xLjY2NWwtLjAyNS03LjI5NGMwLS4zMzMuMTItLjQ0LjQ0LS40MjdsMi4wNjcuMDEyYy41Ni4wMy40NzctLjMxNC41MDMtLjY2Ni4wMjUtLjQwMi0uMDgyLS41ODQtLjUyOC0uNTYtLjU5Ny4wMzgtMS4xOTQtLjAyNS0xLjguMDItLjUyLjAzOC0uNzM1LS4wOTQtLjY5Ny0uNjY2di0yLjc0em0tNS4xOSA5LjE4NWwuMDEzLTUuMjMzYy4wMDYtLjQ1Mi0uMTEzLS41OTctLjU3Mi0uNTcyLS40MDIuMDItLjY3Mi0uMDA2LS42NjYuNTZ2MTAuNDcyYy0uMDA2LjUzNC4yMi41NzguNjUzLjU4NC40NDYuMDA2LjU4NC0uMTEzLjU3OC0uNTcybC0uMDA2LTUuMjR6bS4yNzYtOS45MzJjMC0xLjA1IDAtMS0uOTYtMS4wNjItLjY3Mi0uMDQ0LS44NDguMTctLjgxNy44MjMuMDU3IDEuMjYzLjAxMyAxLjI0NCAxLjI5NCAxLjIyNS40MDItLjAwNi41MjgtLjEzOC40ODQtLjUxLS4wMTMtLjE1NyAwLS4zMiAwLS40Nzd6IiBmaWxsPSIjZmVmZWZkIi8+PHBhdGggZD0iTS02OC4xOTggMzA5LjI5OGwtMi42NjQgOC41LTEuODQ3IDUuOTc0Yy0uMjA3LjcxNi0uNjk3LjQ4NC0xLjE0My41NC0uNDYuMDU3LS42MTYtLjE2My0uNzQ4LS41ODRsLTQuMjY2LTEzLjU3NmMtLjA1LS4xNjMtLjA2My0uMzU4LS4yOTUtLjUxNXYxMy44N2MwIC41OS0uMjk1LjkwNS0uNzYuODgtLjUgMC0uNTktLjUyLS41OS0uNzRsLS4wMDYtOS41MDUtLjAwNi01Ljk5M2MtLjAwNi0uNDY1LjEwNy0uNjM1LjYxLS42MzUgMS43OTctLjAwNiAxLjc2NS0uMDIgMi4yODcgMS43MWwzLjc3NiAxMi4yODhjLjA0NC4xMzguMDMuMzIuMjgzLjQ0bC41NC0xLjc2NSAzLjcwNi0xMi4wMThjLjE1Ny0uNTIuNDE1LS42NTMuOTMtLjY0NyAxLjY0LjAyNSAxLjY0LjAwNiAxLjY0IDEuNjI3bC4wMDYgMTQuNGMwIC41MS0uMDUuOC0uNjkuODA0LS41Ni0uMDA2LS42ODUtLjE4OC0uNjc4LS43MTZsLjAxMy0xNC4zMWMtLjAzOC0uMDEyLS4wNjMtLjAyLS4wOTQtLjAyNXpNLTU1LjkgMzIzLjFsMi42OS0uMTdjLjUxLS4wNS42OS4xMDcuNjc4LjYzNS0uMDA2LjUxLS4wNS43ODUtLjY5Ljc3M2wtNS43MTctLjAyYy0yLjgxNCAwLTQuNDQyLTEuMTc1LTUuMzA4LTMuODY0LS4zNC0xLjA1LS40OTYtMi4xMy0uNTYtMy4yMzUtLjExMy0xLjgzNC0uMDYzLTMuNjU2LjQzMy01LjQ0LjQ0LTEuNTgzIDEuMTU2LTMuMDEgMi42NC0zLjg3NiAyLjc1OC0xLjYwOCA1Ljk4LS4zNjQgNy4xNTUgMi43NDUuODk4IDIuMzc1Ljk1NSA0LjgzLjcgNy4zMTItLjE4MiAxLjg0LS42NiAzLjU2Mi0yLjAzIDUuMTR6bS41MDMtNy4yNzVjLjA3LTEuNDU3LS4wNDQtMi45ODQtLjU0Ny00LjQ2LS4zOS0xLjEyNS0xLjAwNS0yLjA1NC0yLjItMi40Ny0xLjgxNi0uNjI4LTMuNzA2LjI5NS00LjQxNiAyLjIxOC0uNzczIDIuMDg2LS43OTggNC4yNi0uNjQgNi40NC4wNzUgMS4wNS4yMTQgMi4wOTIuNjE2IDMuMDg1LjQ0NiAxLjExMiAxLjE5NCAxLjkgMi40IDIuMTUgMi4wNDIuMzk2IDMuNTUtLjQ5NiA0LjI0Ny0yLjQ3NS40OTYtMS40MjYuNTg0LTIuOTAyLjU0LTQuNDg1eiIgZmlsbD0iI2FjYjdiMSIvPjxnIGZpbGw9IiNmZTY4MDQiPjxwYXRoIGQ9Ik0tMTI2Ljg4IDMxNi4wNThjMS42ODQuNTQgMi4wNiAxLjkzIDIuMzU2IDMuMzhsLjg3MyA0LjNjLjA3NS4zNy4wODguNTQtLjQxNS41NzgtLjc1NC4wNjMtMS4wMS0uMjA3LTEuMTM3LS45MzZsLS45MzYtNC4zNjZjLS40Mi0xLjY0Ni0xLjI4OC0yLjI3NC0yLjk3LTIuMjgtLjQ4NCAwLS45NjcuMDI1LTEuNDQ1LS4wMDYtLjQzMy0uMDMtLjU0LjEyNi0uNTM0LjU0N2wuMDI1IDYuMzRjLjAxMy42MDMtLjIuNjk3LS43NC43LS41ODQuMDEyLS43MTYtLjE3Ni0uNy0uNzM1di0xNS4zNmMwLS41NzguMTU3LS43NC43My0uNyAxLjQyLjA3NSAyLjg0Ni0uMDg4IDQuMjYuMTMyIDEuOTIyLjMwMiAzLjEzNSAxLjM2MyAzLjUxOCAzLjA5Ny40MiAxLjk0LS4yMiAzLjgwNy0xLjYyIDQuNzEyLS4zNy4yMjYtLjc4NS4zNjQtMS4yNS41OXptLTQuMTk3LTMuOTQ1bC4wMDYgMi43NTJjMCAuMjA3LS4wOTQuNS4yODMuNDk2IDEuMjYzLjAyNSAyLjUzMi4wMzggMy43LS41NDcgMS4yNTYtLjYyOCAxLjk0LTIuMDIzIDEuNzEtMy40NTUtLjIyLTEuMzU3LTEuMDM3LTIuMDkyLTIuNTc2LTIuMzU2LS44OTItLjE1LTEuNzg0LS4wOTQtMi42NzYtLjEyNi0uMzc3LS4wMTMtLjQ2NS4xMzItLjQ2LjQ3N2wuMDEyIDIuNzU4em0yOS43IDIuMjVjLjcyMi0xLjA1IDEuNTQtMS44MDMgMi44MDgtMS44ODUgMS41NTItLjEgMi42NzYuNjQ3IDMuMzMgMS45ODUgMS4xNjggMi4zODcgMS4xODcgNC44OTQuMzUyIDcuMzYzLS42NjYgMS45NjYtMi40NTYgMi45OTctNC4zNTQgMi43MjYtMS44NzItLjI3LTMuMDQ3LTEuNjMzLTMuMjk4LTMuODQ1YTEyLjMxIDEyLjMxIDAgMCAxLS4wODgtMS40NDVsLS4wMTMtMTEuMDk0YzAtLjUxLjEyNi0uNjYuNjQ3LS42NjYuNTQ3LS4wMDYuNjQuMTk1LjYzNS42NzhsLS4wMTMgNS41MS0uMDA2LjY3MnptNS41NzIgNC4zMjJjLS4wMDYtMS42NDYtLjMxNC0zLjAzNC0uODE3LTMuODUtLjg3My0xLjQwNy0yLjIzLTEuNTctMy4zNzQtLjM4My0uMjIuMjI2LS40NC40ODQtLjU3Mi43NjYtMS4wMTggMi4xOTItMS4xMTIgNC40NDgtLjIwNyA2LjY3Mi42NiAxLjYyIDIuNDMgMS45NTQgMy42Ny44MTcuNDE1LS4zODMuNjktLjg1NC44OC0xLjM3Ni4zMjctLjg5OC40MDItMS44MzQuNDItMi42NDV6bS0xNS41OTItNC4wNGMxLjE4Ny0xLjk1NCAyLjU3LTIuNTgyIDQuMTUzLTEuOTk4IDEuMDUuMzkgMS43NzggMS4xNTYgMi4xOCAyLjE3NC45MSAyLjMyNC45OCA0LjcxMi4xMzggNy4wNi0uNzM1IDIuMDU0LTIuNjQ1IDMuMDM0LTQuNzM3IDIuNTk1LTEuMzc2LS4yOTUtMi4xNjctMS4yMi0yLjYwNy0yLjQ4OC0uMjMyLS42NzItLjM1OC0xLjM3Ni0uMzUyLTIuMDkybC0uMDA2LTExLjdjMC0uNDc3LjA2My0uNjc4LjYyMi0uNjc4cy42MjIuMjIuNjIyLjY5bC0uMDEyIDYuNDQ2em01LjU1MyAzLjljLS4wMDYtMS41ODMtLjI3Ni0yLjg0LS44LTMuNzItLjgzLTEuMzctMi4yLTEuNTQ1LTMuMzMtLjQxNS0uODczLjg4LTEuMTggMS45OTgtMS4zMTMgMy4xOC0uMTcgMS41NDUtLjE2MyAzLjA3OC41OSA0LjQ5OC42NDcgMS4yMiAxLjg2NiAxLjYwMiAzLjAyOCAxLjAxLjY2Ni0uMzQgMS4wODctLjkwNSAxLjM2My0xLjU3Ny4zOS0uOTYuNDc3LTEuOTY2LjQ3LTIuOTc4em0tOS44ODIgNC4xNDZjLS44MTcgMS4wMzctMS42NTIgMS42MjctMi43NTIgMS44MS0xLjU5LjI3LTIuODctLjMyLTMuMzY3LTEuNTgzLS42MTYtMS41NjQtLjE1Ny0zLjI1NCAxLjEzLTQuMTEgMS4yMTItLjgwNCAyLjYxMy0uOTQyIDQuMDE0LTEuMDQzIDEuMDEtLjA3NSAxLjAxLS4wNjMuOTgtMS4wODdsLS4wMzgtLjY4NWMtLjExMy0xLjkwNC0xLjctMi44ODQtMy40NjgtMi4xNTUtLjU3Mi4yMzItLjkxLjY2Ni0xLjEgMS4yNDQtLjEyNi40LS44OC42NDctMS4zNjMuNDI3LS4zOS0uMTc2LS4xNTctLjUyOC0uMDk0LS43NzMuNDE1LTEuNTc3IDEuODQ3LTIuMzUgNC4xNTMtMi4yNjggMS42NzcuMDU3IDIuNjk1Ljg5MiAzLjAwMyAyLjQ3LjA1Ny4yOS4wODguNTkuMDg4Ljg4NmwuMDEyIDcuODUzYzAgLjQ0LS4wNS42Ni0uNTc4LjY0Ny0uNDctLjAxMi0uNjc4LS4xMjYtLjYxNi0uNjE2LjAyLS4yNy0uMDA2LS41NC0uMDA2LTEuMDE4em0tMS4xMzctMy43NjNsLTEuMzYzLjE1Yy0uODU0LjE2My0xLjYzMy40OTYtMi4wOTIgMS4yODgtLjM5Ni42NzgtLjUgMS4zODgtLjAyIDIuMDczLjQ1Mi42NTMgMS4xMjUuNzIyIDEuODQuNTlhMy4yOCAzLjI4IDAgMCAwIDIuNjk1LTIuOTAyYy4xMzgtMS4yMTIuMTM4LTEuMjItMS4wNjItMS4yem0zMC44MjctOS42MDVsLS4wMTMgMi43NDVjLS4wMy41NzIuMTc2LjcwNC42OTcuNjY2LjU5LS4wNDQgMS4xOTQuMDIgMS44LS4wMi40NDYtLjAyNS41NTMuMTU3LjUyOC41Ni0uMDI1LjM0Ni4wNTcuNjk3LS41MDMuNjY2LS42ODUtLjAzOC0xLjM3Ni4wMDYtMi4wNjctLjAxMi0uMzItLjAwNi0uNDQuMDk0LS40NC40MjdsLjAyNSA3LjI5NGMuMDI1IDEuMzQ0Ljg4IDEuOSAyLjMyNCAxLjY2NS4yMzItLjAzOC42NDctLjM1OC42MzUuMjItLjAwNi4zODMuMjk1Ljk4Ni0uNTEgMWwtMS4xLjA0NGMtMS42NzctLjA4OC0yLjUzMi0uOTEtMi41Ny0yLjZsLS4wMTMtNy4yOTRjLjAwNi0uNTcyLS4wOTQtLjg4LS43MzUtLjc1NC0uMTMyLjAyNS0uMjc2LS4wMTItLjQxNS4wMDYtLjUxNS4wODItLjY1My0uMTI2LS42Ni0uNjQgMC0uNTQuMjMyLS41NzguNjYtLjU3MiAxLjEzLjAxMiAxLjEzIDAgMS4xMy0xLjE1NiAwLS4xNjMuMDI1LS4zMjctLjAwNi0uNDg0LS4xODItLjk2Ny4zNy0xLjQyIDEuMjM4LTEuNzYgMCAuOTU1LS44NjcuMzQgMCAwem0tNS4xOSA5LjE4NWwuMDEzIDUuMjMzYy4wMDYuNDYtLjEzOC41NzgtLjU3OC41NzItLjQzMy0uMDA2LS42NTMtLjA1LS42NTMtLjU4NHYtMTAuNDcyYy0uMDA2LS41NjUuMjY0LS41NC42NjYtLjU2LjQ2LS4wMjUuNTc4LjEyLjU3Mi41NzJsLS4wMiA1LjI0em0uMjc2LTkuNzc1YzAgLjE1Ny0uMDgyLjk4Ni0uNDg0Ljk5My0xLjI4Mi4wMi0xLjI0NC4wMy0xLjI5NC0xLjIyNS4wMDYtLjY2Ni4xNzYtLjc1NC44MTctLjgyMy45NTUuMS45Ni4wMTMuOTYgMS4wNTV6Ii8+PHBhdGggZD0iTS05MS40OTMgMzA5LjU3aC0uN2MtLjI5NSAwLS41MzQtLjI0LS41MzQtLjUzNHYtLjk4NmMwLS4yOTUuMjQtLjUzNC41MzQtLjUzNGguN2MuMjk1IDAgLjUzNC4yNC41MzQuNTM0di45ODZjMCAuMjk1LS4yNC41MzQtLjUzNC41MzR6Ii8+PC9nPjwvc3ZnPg==;" parent="51" vertex="1"><mxGeometry x="13.001428571428846" y="14.498571428571495" width="112" height="29" as="geometry"/></mxCell><mxCell id="52" value="" style="group" parent="1" vertex="1" connectable="0"><mxGeometry x="928" y="363" width="161" height="60" as="geometry"/></mxCell><mxCell id="20" value="" style="shape=cylinder3;whiteSpace=wrap;html=1;boundedLbl=1;backgroundOutline=1;size=15;fontColor=#FFFFFF;strokeColor=#000000;fillColor=none;strokeWidth=3;rotation=90;" parent="52" vertex="1"><mxGeometry x="50.5" y="-50.5" width="60" height="161" as="geometry"/></mxCell><mxCell id="17" value="" style="shape=image;verticalLabelPosition=bottom;labelBackgroundColor=#ffffff;verticalAlign=top;aspect=fixed;imageAspect=0;image=data:image/svg+xml,PHN2ZyB4bWxucz0iaHR0cDovL3d3dy53My5vcmcvMjAwMC9zdmciIHdpZHRoPSIxMTEuOTk2MDAyMTk3MjY1NjIiIGhlaWdodD0iNTIiIHByZXNlcnZlQXNwZWN0UmF0aW89InhNaWRZTWlkIiBmaWxsPSIjMjMxZjIwIiB2aWV3Qm94PSI0IDQgMTExLjk5NjAwMjE5NzI2NTYyIDUyIj48cGF0aCBkPSJNMTQuOSA4LjYyN2MtLjU2NS0uNTc4LTEuMzUtLjkzMy0yLjIyNC0uOTMzYTMuMDUgMy4wNSAwIDAgMC0yLjIwOC45MzNoLS4wMTVhMy4xOCAzLjE4IDAgMCAwLS45MjMgMi4yNTggMy4xOCAzLjE4IDAgMCAwIC45MTMgMi4yNTJsLjAxNS4wMTZhMy4wNiAzLjA2IDAgMCAwIDIuMjA4LjkyM2MuODc0IDAgMS42NTgtLjM1IDIuMjI0LS45MjNsLjAwNi0uMDE2Yy41NjYtLjU2OC45LTEuMzYzLjktMi4yNTJhMy4yIDMuMiAwIDAgMC0uOTExLTIuMjU3aC4wMDV6bS0yLjIyNCA0My42OGMuODc0IDAgMS42NTgtLjM2MiAyLjIyNC0uOTNsLjAwNi0uMDE2Yy41NjYtLjU2Ni45LTEuMzY2LjktMi4yNDUgMC0uOS0uMzQ1LTEuNjg2LS45LTIuMjYySDE0LjljLS41NjUtLjU4My0xLjM1LS45MzYtMi4yMjQtLjkzNmEzLjAzIDMuMDMgMCAwIDAtMi4yMDguOTM2aC0uMDE1YTMuMjIgMy4yMiAwIDAgMC0uOTEzIDIuMjYyIDMuMTggMy4xOCAwIDAgMCAuOTEzIDIuMjQ1bC4wMTUuMDE2YTMuMDkgMy4wOSAwIDAgMCAyLjIwOC45Mjl6TTI5Ljc2IDQyLjY0YTMuMSAzLjEgMCAwIDAgMS45MS0xLjQ4MmwuMDU4LS4xMTJhMy4xOSAzLjE5IDAgMCAwIC4yNDgtMi4zMTFjLS4yMDYtLjc5Ni0uNy0xLjUwMi0xLjQ2Mi0xLjk0bC0uMDQ0LS4wM2EzLjA4IDMuMDggMCAwIDAtMi4zMzQtLjI4NmMtLjc4LjE5OC0xLjQ4LjcyNy0xLjkwOCAxLjQ4N2EzLjI2IDMuMjYgMCAwIDAtLjMxNiAyLjQyNSAzLjIzIDMuMjMgMCAwIDAgMS40NjEgMS45NDJoLjAwNWMuNzUuNDQgMS41OTcuNTE3IDIuMzgzLjN6bS0xMy44NzctMTUuOWMtLjgyMy0uODM1LTEuOTYtMS4zNi0zLjIxNi0xLjM2YTQuNDkgNC40OSAwIDAgMC0zLjIxIDEuMzU5Yy0uODIuODM0LTEuMzI0IDEuOTg1LTEuMzI0IDMuMjY1YTQuNjkgNC42OSAwIDAgMCAxLjMyNCAzLjI3OWMuODIuODMgMS45NTQgMS4zNSAzLjIgMS4zNXMyLjM5My0uNTIgMy4yMTYtMS4zNWE0LjY5IDQuNjkgMCAwIDAgMS4zMjYtMy4yOCA0LjYzIDQuNjMgMCAwIDAtMS4zMjYtMy4yNjV6bS0xLjgtNS40MzhhOC41NyA4LjU3IDAgMCAxIDQuNzE2IDIuNDc5aC4wMWE4LjYyIDguNjIgMCAwIDEgLjU3My42NDdsMy4xMy0xLjg0M2E2LjkgNi45IDAgMCAxLS4xMDItMy45MTdjLjQ0Ni0xLjcgMS41My0zLjIyIDMuMTUyLTQuMTczbC4wNTMtLjAzNGE2LjYzIDYuNjMgMCAwIDEgNS4wNzctLjY2MyA2Ljc1IDYuNzUgMCAwIDEgNC4xIDMuMnYuMDA1Yy45MzIgMS42NCAxLjEyIDMuNTIyLjY3NyA1LjIxNi0uNDQ0IDEuNy0xLjUzIDMuMjMtMy4xNTIgNC4xNzhsLS40MjguMjU3aC0uMDQzYTYuNjkgNi42OSAwIDAgMS00LjY2My40MzUgNi43NiA2Ljc2IDAgMCAxLTMuMjc3LTIuMDQ0bC0zLjEyNiAxLjgzN2E4Ljg0IDguODQgMCAwIDEgLjU1OCAzLjExMmMwIDEuMDk2LS4xOTggMi4xNTQtLjU1OCAzLjEyNmwzLjEyNiAxLjgzM2MuODkzLTEuMDE4IDIuMDM0LTEuNyAzLjI3Ny0yLjA0NSAxLjY3LS40NjQgMy41MTgtLjI2NyA1LjEzNC42OTJsLjEwNC4wNXYuMDA1YTYuODYgNi44NiAwIDAgMSAzLjA0OCA0LjEyOSA2Ljk3IDYuOTcgMCAwIDEtLjY3NyA1LjIxMWwtLjA1Ni4xMTVoLS4wMDdhNi44MiA2LjgyIDAgMCAxLTQuMDQyIDMuMTEyYy0xLjY3LjQ0OC0zLjUyLjI1Ny01LjEzNS0uNjg4di0uMDEzYTYuODQgNi44NCAwIDAgMS0zLjE1Mi00LjE3NSA2Ljg3IDYuODcgMCAwIDEgLjEwMi0zLjkxMWwtMy4xMy0xLjgzOGE4LjczIDguNzMgMCAwIDEtLjU3My42MzdsLS4wMS4wMWMtMS4yNTIgMS4yOC0yLjkgMi4xNy00LjcxNiAyLjQ2NXYzLjY4YTYuNjkgNi42OSAwIDAgMSAzLjM3NyAxLjg2N2wuMDA1LjAxYzEuMjIzIDEuMjM4IDEuOTggMi45NjQgMS45OCA0Ljg2YTYuOSA2LjkgMCAwIDEtMS45OCA0Ljg1bC0uMDA1LjAyQzE2LjIyIDU1LjIzIDE0LjUzIDU2IDEyLjY2NyA1NmMtMS44NTQgMC0zLjU0OC0uNzctNC43NzYtMi4wMTVoLS4wMDV2LS4wMmE2LjkgNi45IDAgMCAxLTEuOTgzLTQuODUxYzAtMS44OTcuNzYtMy42MjIgMS45ODMtNC44NnYtLjAxaC4wMDVhNi41OCA2LjU4IDAgMCAxIDMuMzc0LTEuODY3di0zLjY4Yy0xLjgyNS0uMjk2LTMuNDYtMS4xODUtNC43LTIuNDY1bC0uMDEzLS4wMUE4Ljg4IDguODggMCAwIDEgNCAyOS45OTVjMC0yLjQzLjk3OC00LjYyOCAyLjU0LTYuMjIzaC4wMTNhOC41NSA4LjU1IDAgMCAxIDQuNzExLTIuNDc5di0zLjY2NWE2LjgxIDYuODEgMCAwIDEtMy4zNzQtMS44NzJoLS4wMDV2LS4wMWE2LjkyIDYuOTIgMCAwIDEtMS45ODMtNC44NjEgNi45MyA2LjkzIDAgMCAxIDEuOTgzLTQuODZMNy45IDYuMDJBNi42NSA2LjY1IDAgMCAxIDEyLjY2NyA0YzEuODY0IDAgMy41NTMuNzcgNC43ODQgMi4wMnYuMDA1aC4wMDVjMS4yMjMgMS4yNDUgMS45OCAyLjk3MyAxLjk4IDQuODZhNi45NCA2Ljk0IDAgMCAxLTEuOTggNC44NmwtLjAwNS4wMWMtLjkxMi45MjQtMi4wNzYgMS41ODUtMy4zNzcgMS44NzJ2My42NjV6bTE3LjU4NS0yLjQ0NWwtLjAyNi0uMDRhMy4xNSAzLjE1IDAgMCAwLTEuODgzLTEuNDQ3IDMuMDkgMy4wOSAwIDAgMC0yLjM4OC4zMTdoLjAwNWMtLjc1Mi40MzQtMS4yNTUgMS4xNDUtMS40NjYgMS45NGEzLjI0IDMuMjQgMCAwIDAgLjMxNiAyLjQyNWwuMDE0LjAyYy40MzMuNzUgMS4xMjMgMS4yNTUgMS44OTMgMS40NTguNzczLjIyMiAxLjYzNi4xMjggMi4zNzgtLjMxMmwuMDQtLjAyYy43My0uNDQ0IDEuMjItMS4xNDYgMS40MjItMS45MTYuMjA3LS43OTUuMTI1LTEuNjY0LS4zMDUtMi40MjVtMTMuODkyIDEuMDc3aDMuNDkzdjEwLjg1Mmw1LjAzOC01LjY3aDQuMmwtNi4wODIgNi41N0w1OC4yOTYgNDBoLTRsLTUuMjUyLTcuNDM4VjQwSDQ1LjU1VjE5LjkyNG0xNi43NzggMTIuNjkzYzAgMS44NDggMS4zMDYgNC41MzQgNC40NTMgNC41MzQgMS45NDcgMCAzLjIyOC0xLjAzMiAzLjg5My0yLjM4NS4zNDgtLjY1Ny41MDgtMS4zNi41NjItMi4xYTQuNzUgNC43NSAwIDAgMC0uNDAyLTIuMDk1Yy0uNjEyLTEuNDA3LTEuOTcyLTIuNjI3LTQuMDc4LTIuNjI3LTIuODI1IDAtNC40MjcgMi4zMy00LjQyNyA0LjYzOHYuMDI1ek03NC43IDQwaC0zLjQ5NXYtMi4xNDNjLS45MyAxLjczMy0yLjg3OCAyLjYwMy00LjkzMiAyLjYwMy00LjY5MyAwLTcuNDQtMy43Mi03LjQ0LTcuOTIyIDAtNC42OTMgMy4zMzMtNy44OTQgNy40NC03Ljg5NCAyLjY2NiAwIDQuMjkyIDEuNDM4IDQuOTMyIDIuNjMzdi0yLjE3M0g3NC43VjQwbTMuOTU3LTEyLjE1NGgtMS44di0yLjc0aDEuOHYtLjg0YzAtNC40MjYgMy4zMDctNC42OTMgNS44MTUtNC43MjJ2Mi43MzZjLS44ODIgMC0yLjMyIDAtMi4zMiAyLjA5NHYuNzNoMi4zMnYyLjc0aC0yLjMyVjQwaC0zLjQ5NVYyNy44NDZtOC4yLTcuOTIyaDMuNDkydjEwLjg1Mmw1LjA0LTUuNjdoNC4ybC02LjA4MiA2LjU3TDk5LjYgNDBoLTRsLTUuMjUyLTcuNDM4VjQwaC0zLjQ5MlYxOS45MjRtMTYuNzggMTIuNjkzYzAgMS44NDggMS4zMDUgNC41MzQgNC40NTMgNC41MzQgMS45NDQgMCAzLjIyNi0xLjAzMiAzLjktMi4zODUuMzUtLjY1Ny41LTEuMzYuNTYyLTIuMS4wMjQtLjcwNy0uMTA3LTEuNDQyLS40MDMtMi4wOTUtLjYtMS40MDctMS45Ny0yLjYyNy00LjA3Ny0yLjYyNy0yLjgyNiAwLTQuNDI3IDIuMzMtNC40MjcgNC42Mzh2LjAyNXpNMTE1Ljk5NiA0MGgtMy40OTR2LTIuMTQzYy0uOTMzIDEuNzMzLTIuODggMi42MDMtNC45MzIgMi42MDMtNC42OTMgMC03LjQzNy0zLjcyLTcuNDM3LTcuOTIyIDAtNC42OTMgMy4zMy03Ljg5NCA3LjQzNy03Ljg5NCAyLjY2NSAwIDQuMjkyIDEuNDM4IDQuOTMyIDIuNjMzdi0yLjE3M2gzLjQ5NFY0MCIvPjwvc3ZnPg==;" parent="52" vertex="1"><mxGeometry x="24" y="10" width="86.15" height="40" as="geometry"/></mxCell><mxCell id="54" value="" style="group" parent="1" vertex="1" connectable="0"><mxGeometry x="823" y="660" width="64" height="89" as="geometry"/></mxCell><mxCell id="30" value="" style="shape=cylinder3;whiteSpace=wrap;html=1;boundedLbl=1;backgroundOutline=1;size=15;fontColor=#FFFFFF;strokeColor=#000000;strokeWidth=3;fillColor=none;align=left;" parent="54" vertex="1"><mxGeometry width="64" height="89" as="geometry"/></mxCell><mxCell id="31" value="" style="shape=image;verticalLabelPosition=bottom;labelBackgroundColor=#ffffff;verticalAlign=top;imageAspect=0;image=data:image/svg+xml,PHN2ZyB4bWxucz0iaHR0cDovL3d3dy53My5vcmcvMjAwMC9zdmciIGhlaWdodD0iMjMuNTI0NTc0Mjc5Nzg1MTU2IiB2aWV3Qm94PSIxLjQ4OTM3OTg4MjgxMjUgMS4wMzk0ODk5ODQ1MTIzMjkgMjIuNzA0MzY4NTkxMzA4NTk0IDIzLjUyNDU3NDI3OTc4NTE1NiIgd2lkdGg9IjIyLjcwNDM2ODU5MTMwODU5NCI+PHN0eWxlPi5Ce3N0cm9rZS1saW5lY2FwOnJvdW5kfS5De3N0cm9rZS1saW5lam9pbjpyb3VuZH0uRHtzdHJva2UtbGluZWpvaW46bWl0ZXJ9LkV7c3Ryb2tlLXdpZHRoOi43MTZ9PC9zdHlsZT48ZyBmaWxsPSJub25lIiBzdHJva2U9IiNmZmYiPjxwYXRoIGQ9Ik0xOC45ODMgMTguNjM2Yy4xNjMtMS4zNTcuMTE0LTEuNTU1IDEuMTI0LTEuMzM2bC4yNTcuMDIzYy43NzcuMDM1IDEuNzkzLS4xMjUgMi40LS40MDIgMS4yODUtLjU5NiAyLjA0Ny0xLjU5Mi43OC0xLjMzLTIuODkuNTk2LTMuMS0uMzgzLTMuMS0uMzgzIDMuMDUzLTQuNTMgNC4zMy0xMC4yOCAzLjIyNy0xMS42ODctMy4wMDQtMy44NC04LjIwNS0yLjAyNC04LjI5Mi0xLjk3NmwtLjAyOC4wMDVjLS41Ny0uMTItMS4yLS4xOS0xLjkzLS4yLTEuMzA4LS4wMi0yLjMuMzQzLTMuMDU0LjkxNCAwIDAtOS4yNzctMy44MjItOC44NDYgNC44MDcuMDkyIDEuODM2IDIuNjMgMTMuOSA1LjY2IDEwLjI1QzguMjkgMTUuOTg3IDkuMzYgMTQuODYgOS4zNiAxNC44NmMuNTMuMzUzIDEuMTY3LjUzMyAxLjgzNC40NjhsLjA1Mi0uMDQ0YTIuMDEgMi4wMSAwIDAgMCAuMDIxLjUxOGMtLjc4Ljg3Mi0uNTUgMS4wMjUtMi4xMSAxLjM0Ni0xLjU3OC4zMjUtLjY1LjkwNC0uMDQ2IDEuMDU2LjczNC4xODQgMi40MzIuNDQ0IDMuNTgtMS4xNjJsLS4wNDYuMTgzYy4zMDYuMjQ1LjI4NSAxLjc2LjMzIDIuODQycy4xMTYgMi4wOTMuMzM3IDIuNjg4LjQ4IDIuMTMgMi41MyAxLjdjMS43MTMtLjM2NyAzLjAyMy0uODk2IDMuMTQzLTUuODEiIGZpbGw9IiMwMDAiIHN0cm9rZT0iIzAwMCIgc3Ryb2tlLWxpbmVjYXA9ImJ1dHQiIHN0cm9rZS13aWR0aD0iMi4xNDkiIGNsYXNzPSJEIi8+PHBhdGggZD0iTTIzLjUzNSAxNS42Yy0yLjg5LjU5Ni0zLjEtLjM4My0zLjEtLjM4MyAzLjA1My00LjUzIDQuMzMtMTAuMjggMy4yMjgtMTEuNjg3LTMuMDA0LTMuODQtOC4yMDUtMi4wMjMtOC4yOTItMS45NzZsLS4wMjguMDA1YTEwLjMxIDEwLjMxIDAgMCAwLTEuOTI5LS4yMDFjLTEuMzA4LS4wMi0yLjMuMzQzLTMuMDU0LjkxNCAwIDAtOS4yNzgtMy44MjItOC44NDYgNC44MDcuMDkyIDEuODM2IDIuNjMgMTMuOSA1LjY2IDEwLjI1QzguMjkgMTUuOTg3IDkuMzYgMTQuODYgOS4zNiAxNC44NmMuNTMuMzUzIDEuMTY3LjUzMyAxLjgzNC40NjhsLjA1Mi0uMDQ0YTIuMDIgMi4wMiAwIDAgMCAuMDIxLjUxOGMtLjc4Ljg3Mi0uNTUgMS4wMjUtMi4xMSAxLjM0Ni0xLjU3OC4zMjUtLjY1LjkwNC0uMDQ2IDEuMDU2LjczNC4xODQgMi40MzIuNDQ0IDMuNTgtMS4xNjJsLS4wNDYuMTgzYy4zMDYuMjQ1LjUyIDEuNTkzLjQ4NCAyLjgxNXMtLjA2IDIuMDYuMTggMi43MTYuNDggMi4xMyAyLjUzIDEuN2MxLjcxMy0uMzY3IDIuNi0xLjMyIDIuNzI1LTIuOTA2LjA4OC0xLjEyOC4yODYtLjk2Mi4zLTEuOTdsLjE2LS40NzhjLjE4My0xLjUzLjAzLTIuMDIzIDEuMDg1LTEuNzkzbC4yNTcuMDIzYy43NzcuMDM1IDEuNzk0LS4xMjUgMi4zOS0uNDAyIDEuMjg1LS41OTYgMi4wNDctMS41OTIuNzgtMS4zM3oiIGZpbGw9IiMzMzY3OTEiIHN0cm9rZT0ibm9uZSIvPjxnIGNsYXNzPSJFIj48ZyBjbGFzcz0iQiI+PHBhdGggZD0iTTEyLjgxNCAxNi40NjdjLS4wOCAyLjg0Ni4wMiA1LjcxMi4yOTggNi40cy44NzUgMi4wNSAyLjkyNiAxLjYxMmMxLjcxMy0uMzY3IDIuMzM3LTEuMDc4IDIuNjA3LTIuNjQ3bC42MzMtNS4wMTdNMTAuMzU2IDIuMlMxLjA3Mi0xLjU5NiAxLjUwNCA3LjAzM2MuMDkyIDEuODM2IDIuNjMgMTMuOSA1LjY2IDEwLjI1QzguMjcgMTUuOTUgOS4yNyAxNC45MDcgOS4yNyAxNC45MDdtNi4xLTEzLjRjLS4zMi4xIDUuMTY0LTIuMDA1IDguMjgyIDEuOTc4IDEuMSAxLjQwNy0uMTc1IDcuMTU3LTMuMjI4IDExLjY4NyIgY2xhc3M9IkMiLz48cGF0aCBkPSJNMjAuNDI1IDE1LjE3cy4yLjk4IDMuMS4zODJjMS4yNjctLjI2Mi41MDQuNzM0LS43OCAxLjMzLTEuMDU0LjQ5LTMuNDE4LjYxNS0zLjQ1Ny0uMDYtLjEtMS43NDUgMS4yNDQtMS4yMTUgMS4xNDctMS42NTItLjA4OC0uMzk0LS42OS0uNzgtMS4wODYtMS43NDQtLjM0Ny0uODQtNC43Ni03LjI5IDEuMjI0LTYuMzMzLjIyLS4wNDUtMS41Ni01LjctNy4xNi01Ljc4MlM3Ljk5IDguMTk2IDcuOTkgOC4xOTYiIHN0cm9rZS1saW5lam9pbj0iYmV2ZWwiLz48L2c+PGcgY2xhc3M9IkMiPjxwYXRoIGQ9Ik0xMS4yNDcgMTUuNzY4Yy0uNzguODcyLS41NSAxLjAyNS0yLjExIDEuMzQ2LTEuNTc4LjMyNS0uNjUuOTA0LS4wNDYgMS4wNTYuNzM0LjE4NCAyLjQzMi40NDQgMy41OC0xLjE2My4zNS0uNDktLjAwMi0xLjI3LS40ODItMS40NjgtLjIzMi0uMDk2LS41NDItLjIxNi0uOTQuMjN6Ii8+PHBhdGggZD0iTTExLjE5NiAxNS43NTNjLS4wOC0uNTEzLjE2OC0xLjEyMi40MzMtMS44MzYuMzk4LTEuMDcgMS4zMTYtMi4xNC41ODItNS41MzctLjU0Ny0yLjUzLTQuMjItLjUyNy00LjIyLS4xODRzLjE2NiAxLjc0LS4wNiAzLjM2NWMtLjI5NyAyLjEyMiAxLjM1IDMuOTE2IDMuMjQ2IDMuNzMzIiBjbGFzcz0iQiIvPjwvZz48L2c+PGcgZmlsbD0iI2ZmZiIgY2xhc3M9IkQiPjxwYXRoIGQ9Ik0xMC4zMjIgOC4xNDVjLS4wMTcuMTE3LjIxNS40My41MTYuNDcycy41NTgtLjIwMi41NzUtLjMyLS4yMTUtLjI0Ni0uNTE2LS4yODgtLjU2LjAyLS41NzUuMTM2eiIgc3Ryb2tlLXdpZHRoPSIuMjM5Ii8+PHBhdGggZD0iTTE5LjQ4NiA3LjkwNmMuMDE2LjExNy0uMjE1LjQzLS41MTYuNDcycy0uNTYtLjIwMi0uNTc1LS4zMi4yMTUtLjI0Ni41MTYtLjI4OC41Ni4wMi41NzUuMTM2eiIgc3Ryb2tlLXdpZHRoPSIuMTE5Ii8+PC9nPjxwYXRoIGQ9Ik0yMC41NjIgNy4wOTVjLjA1LjkyLS4xOTggMS41NDUtLjIzIDIuNTI0LS4wNDYgMS40MjIuNjc4IDMuMDUtLjQxMyA0LjY4IiBjbGFzcz0iQiBDIEUiLz48L2c+PC9zdmc+;aspect=fixed;" parent="54" vertex="1"><mxGeometry x="10.870000000000005" y="36" width="40.26" height="42" as="geometry"/></mxCell><mxCell id="55" value="" style="html=1;endArrow=block;elbow=vertical;startArrow=none;endFill=1;strokeColor=#545B64;rounded=0;fontColor=#000000;exitX=0.5;exitY=0;exitDx=0;exitDy=0;exitPerimeter=0;strokeWidth=3;entryX=0;entryY=0.5;entryDx=0;entryDy=0;" parent="1" source="18" target="14" edge="1"><mxGeometry width="100" relative="1" as="geometry"><mxPoint x="270.5000000000002" y="457.8000000000002" as="sourcePoint"/><mxPoint x="378" y="457.00000000000045" as="targetPoint"/></mxGeometry></mxCell><mxCell id="56" value="" style="html=1;endArrow=block;elbow=vertical;startArrow=none;endFill=1;strokeColor=#545B64;rounded=0;fontColor=#000000;exitX=0.5;exitY=0;exitDx=0;exitDy=0;exitPerimeter=0;strokeWidth=3;entryX=0;entryY=0.5;entryDx=0;entryDy=0;" parent="1" source="20" target="106" edge="1"><mxGeometry width="100" relative="1" as="geometry"><mxPoint x="1099" y="566" as="sourcePoint"/><mxPoint x="1148" y="470" as="targetPoint"/></mxGeometry></mxCell><mxCell id="60" value="" style="html=1;endArrow=block;elbow=vertical;startArrow=none;endFill=1;strokeColor=#545B64;rounded=0;fontColor=#000000;strokeWidth=3;entryX=0.5;entryY=0;entryDx=0;entryDy=0;entryPerimeter=0;shape=link;exitX=0.5;exitY=1;exitDx=0;exitDy=0;" parent="1" source="14" target="58" edge="1"><mxGeometry width="100" relative="1" as="geometry"><mxPoint x="769" y="679" as="sourcePoint"/><mxPoint x="878" y="736.5" as="targetPoint"/></mxGeometry></mxCell><mxCell id="61" value="" style="shape=image;verticalLabelPosition=bottom;labelBackgroundColor=#ffffff;verticalAlign=top;aspect=fixed;imageAspect=0;image=data:image/svg+xml,PHN2ZyB4bWxucz0iaHR0cDovL3d3dy53My5vcmcvMjAwMC9zdmciIHdpZHRoPSIxNC4zNzQ0NDQ5NjE1NDc4NTIiIGhlaWdodD0iMzIuMDAyNDA3MDczOTc0NjEiIHZpZXdCb3g9IjguODEyOTIzNDMxMzk2NDg0IC0wLjAwMDQwMzAwOTM1NTA2ODIwNjggMTQuMzc0NDQ0OTYxNTQ3ODUyIDMyLjAwMjQwNzA3Mzk3NDYxIj48cGF0aCBkPSJNMTUuOS4wODdsLjg1NCAxLjYwNGMuMTkyLjI5Ni40LjU1OC42NDUuODAyLjcxNS43MTUgMS4zOTQgMS40NjQgMi4wMDQgMi4yNjYgMS40NDcgMS45IDIuNDIzIDQuMDEgMy4xMiA2LjI5Mi40MTggMS4zOTQuNjQ1IDIuODI0LjY2MiA0LjI3LjA3IDQuMzIzLTEuNDEyIDguMDM1LTQuNCAxMS4xMi0uNDg4LjQ4OC0xLjAxLjk0LTEuNTcgMS4zNDItLjI5NiAwLS40MzYtLjIyNy0uNTU4LS40MzYtLjIyNy0uMzgzLS4zNjYtLjgyLS40MzYtMS4yNTUtLjEwNS0uNTIzLS4xNzQtMS4wNDYtLjE0LTEuNTg2di0uMjQ0QzE2LjA1NyAyNC4yMSAxNS43OTYuMjEgMTUuOS4wODd6IiBmaWxsPSIjNTk5NjM2Ii8+PHBhdGggZD0iTTE1LjkuMDM0Yy0uMDM1LS4wNy0uMDctLjAxNy0uMTA1LjAxNy4wMTcuMzUtLjEwNS42NjItLjI5Ni45Ni0uMjEuMjk2LS40ODguNTIzLS43NjcuNzY3LTEuNTUgMS4zNDItMi43NyAyLjk2My0zLjc0NyA0Ljc3Ni0xLjMgMi40NC0xLjk3IDUuMDU1LTIuMTYgNy44MDgtLjA4Ny45OTMuMzE0IDQuNDk3LjYyNyA1LjUwOC44NTQgMi42ODQgMi4zODggNC45MzMgNC4zNzUgNi44ODUuNDg4LjQ3IDEuMDEuOTA2IDEuNTUgMS4zMjUuMTU3IDAgLjE3NC0uMTQuMjEtLjI0NGE0Ljc4IDQuNzggMCAwIDAgLjE1Ny0uNjhsLjM1LTIuNjE0TDE1LjkuMDM0eiIgZmlsbD0iIzZjYWM0OCIvPjxwYXRoIGQ9Ik0xNi43NTQgMjguODQ1Yy4wMzUtLjQuMjI3LS43MzIuNDM2LTEuMDYzLS4yMS0uMDg3LS4zNjYtLjI2LS40ODgtLjQ1My0uMTA1LS4xNzQtLjE5Mi0uMzgzLS4yNi0uNTc1LS4yNDQtLjczMi0uMjk2LTEuNS0uMzY2LTIuMjQ4di0uNDUzYy0uMDg3LjA3LS4xMDUuNjYyLS4xMDUuNzVhMTcuMzcgMTcuMzcgMCAwIDEtLjMxNCAyLjM1M2MtLjA1Mi4zMTQtLjA4Ny42MjctLjI4LjkwNiAwIC4wMzUgMCAuMDcuMDE3LjEyMi4zMTQuOTI0LjQgMS44NjUuNDUzIDIuODI0di4zNWMwIC40MTgtLjAxNy4zMy4zMy40Ny4xNC4wNTIuMjk2LjA3LjQzNi4xNzQuMTA1IDAgLjEyMi0uMDg3LjEyMi0uMTU3bC0uMDUyLS41NzV2LTEuNjA0Yy0uMDE3LS4yOC4wMzUtLjU1OC4wNy0uODJ6IiBmaWxsPSIjYzJiZmJmIi8+PC9zdmc+;" parent="1" vertex="1"><mxGeometry x="1271.06" y="681" width="21.87" height="50" as="geometry"/></mxCell><mxCell id="58" value="" style="shape=cylinder3;whiteSpace=wrap;html=1;boundedLbl=1;backgroundOutline=1;size=15;fontColor=#FFFFFF;strokeColor=#000000;strokeWidth=3;fillColor=none;align=left;" parent="1" vertex="1"><mxGeometry x="1251" y="647" width="64" height="89" as="geometry"/></mxCell><mxCell id="62" value="" style="shape=image;verticalLabelPosition=bottom;labelBackgroundColor=#ffffff;verticalAlign=top;aspect=fixed;imageAspect=0;image=data:image/svg+xml,PHN2ZyB4bWxucz0iaHR0cDovL3d3dy53My5vcmcvMjAwMC9zdmciIHdpZHRoPSIxMTAuMzM5MTU3MTA0NDkyMTkiIGhlaWdodD0iMzMuMTc5Njc2MDU1OTA4MiIgdmlld0JveD0iNC44MzA0NTcyMTA1NDA3NzE1IDEzLjQxMDE3MjQ2MjQ2MzM3OSAxMTAuMzM5MTU3MTA0NDkyMTkgMzMuMTc5Njc2MDU1OTA4MiI+PGcgdHJhbnNmb3JtPSJtYXRyaXgoLjQ4NjUwMiAwIDAgLjQ4NjUwMiA0LjgzMDQ1NyAxNy40NDgxMzkpIiBmaWxsPSIjZTMxZTI2Ij48cGF0aCBkPSJNMTU5LjkgNS4xaC0xMi4xYS42NS42NSAwIDAgMC0uNi42djdhLjY1LjY1IDAgMCAwIC42LjZoMTIuMWEuNjUuNjUgMCAwIDAgLjYtLjZ2LTdjMC0uNC0uMi0uNi0uNi0uNnptLS4yIDEwLjRoLTIzLjJjLS4zIDAtLjcuMy0uOC42bC0zIDExLjQtLjIuNi0zLjUtMTIuMmMtLjEtLjMtLjQtLjYtLjgtLjZoLTljLS4zIDAtLjcuMy0uOC42TDExNSAyNy4zbC0uMi42LS4yLS42LTIuOC0xMS4yYy0uMS0uMy0uNC0uNi0uOC0uNkg5Mi45VjUuN2MwLS4zLS40LS43LS44LS41TDgwLjYgOC43Yy0uMy4xLS42LjMtLjYuNnY2LjJoLTNhLjY1LjY1IDAgMCAwLS42LjZ2OC43YS42NS42NSAwIDAgMCAuNi42aDNWMzZjMCA3LjUgNC4xIDExIDExLjcgMTEgMy4xIDAgNi4yLS43IDguMi0xLjh2LTljMC0uNS0uNC0uNi0uNi0uNS0xLjIuNS0yLjIuNy0zLjMuNy0yIDAtMy4xLS44LTMuMS0zLjJ2LTcuOGg2LjVhLjY1LjY1IDAgMCAwIC42LS42di03LjNsOC42IDI4LjZjLjEuMy40LjYuOC42aDkuNWMuMyAwIC43LS4zLjgtLjZsNC4xLTEyLjcgNCAxMi42Yy4xLjMuNS42LjguNmg5LjVjLjMgMCAuNy0uMy44LS42bDguNy0yOC43VjQ2YS42NS42NSAwIDAgMCAuNi42aDExLjZhLjY1LjY1IDAgMCAwIC42LS42VjE2LjFjLS4xLS40LS40LS42LS43LS42ek0xNzUgNS4xaC0xMS42YS42NS42NSAwIDAgMC0uNi42VjQ2YS42NS42NSAwIDAgMCAuNi42SDE3NWEuNjUuNjUgMCAwIDAgLjYtLjZWNS43YzAtLjQtLjMtLjYtLjYtLjZ6bTE1LjUgMGgtMTIuMWEuNjUuNjUgMCAwIDAtLjYuNnY3YS42NS42NSAwIDAgMCAuNi42aDEyLjFhLjY1LjY1IDAgMCAwIC42LS42di03YzAtLjQtLjItLjYtLjYtLjZ6bS0uMiAxMC40aC0xMS42YS42NS42NSAwIDAgMC0uNi42VjQ2YS42NS42NSAwIDAgMCAuNi42aDExLjZhLjY1LjY1IDAgMCAwIC42LS42VjE2LjFjMC0uNC0uMy0uNi0uNi0uNnptMTkuMi0uOGMtMTAuMiAwLTE3LjQgNy41LTE3LjQgMTYuMnYuMWMwIDguNyA3LjIgMTYuMSAxNy4zIDE2LjEgMTAuMiAwIDE3LjQtNy41IDE3LjQtMTYuMnYtLjFjLjEtOC43LTcuMS0xNi4xLTE3LjMtMTYuMXptNSAxNi4zYzAgMi45LTIuMSA1LjQtNSA1LjQtMi44IDAtNS4xLTIuNC01LjEtNS41di0uMWMwLTIuOSAyLjEtNS40IDUtNS40IDIuOCAwIDUuMSAyLjQgNS4xIDUuNXpNMzQuMS04LjNDMTUuMy04LjMgMCA3IDAgMjUuOHMxNS4zIDM0LjEgMzQuMSAzNC4xQzUzIDYwIDY4LjMgNDQuNyA2OC4zIDI1LjhTNTMtOC4zIDM0LjEtOC4zem0wIDU5LjNDMjAuMyA1MSA5IDM5LjcgOSAyNS44IDkgMTIgMjAuMy43IDM0LjEuNyA0OCAuNyA1OS4zIDEyIDU5LjMgMjUuOCA1OS4zIDM5LjcgNDggNTEgMzQuMSA1MXoiLz48Y2lyY2xlIHI9IjcuMSIgY3k9IjE3LjMiIGN4PSI0Mi42Ii8+PGNpcmNsZSByPSI3LjEiIGN5PSIzNC4zIiBjeD0iNDIuNiIvPjxjaXJjbGUgcj0iNy4xIiBjeT0iMzQuMyIgY3g9IjI1LjYiLz48Y2lyY2xlIHI9IjcuMSIgY3k9IjE3LjMiIGN4PSIyNS42Ii8+PC9nPjwvc3ZnPg==;" parent="1" vertex="1"><mxGeometry x="1576" y="539.4952671595983" width="110" height="33" as="geometry"/></mxCell><mxCell id="63" value="" style="html=1;endArrow=block;elbow=vertical;startArrow=none;endFill=1;strokeColor=#545B64;rounded=0;fontColor=#000000;exitX=1;exitY=0.5;exitDx=0;exitDy=0;strokeWidth=3;entryX=0;entryY=0.5;entryDx=0;entryDy=0;dashed=1;" parent="1" source="14" target="62" edge="1"><mxGeometry width="100" relative="1" as="geometry"><mxPoint x="270.5000000000002" y="457.8000000000002" as="sourcePoint"/><mxPoint x="378" y="457.00000000000045" as="targetPoint"/></mxGeometry></mxCell><mxCell id="70" value="Sleuth&lt;br style=&quot;font-size: 13px;&quot;&gt;Distributed Tracing" style="html=1;endArrow=block;elbow=vertical;startArrow=none;endFill=1;strokeColor=#545B64;rounded=0;fontColor=#000000;exitX=0.856;exitY=1.009;exitDx=0;exitDy=0;exitPerimeter=0;strokeWidth=3;entryX=0.5;entryY=0;entryDx=0;entryDy=0;labelBackgroundColor=#FFFFFF;fontStyle=1;fontSize=13;" parent="1" target="66" edge="1"><mxGeometry width="100" relative="1" as="geometry"><mxPoint x="1074.672" y="793.373" as="sourcePoint"/><mxPoint x="181" y="457.00000000000045" as="targetPoint"/></mxGeometry></mxCell><mxCell id="72" value="Pull Images" style="html=1;endArrow=block;elbow=vertical;startArrow=none;endFill=1;strokeColor=#545B64;rounded=0;fontColor=#000000;exitX=0.856;exitY=1.009;exitDx=0;exitDy=0;exitPerimeter=0;strokeWidth=3;entryX=0.5;entryY=0;entryDx=0;entryDy=0;labelBackgroundColor=#FFFFFF;fontStyle=1;fontSize=13;" parent="1" target="71" edge="1"><mxGeometry width="100" relative="1" as="geometry"><mxPoint x="553.672" y="788.003" as="sourcePoint"/><mxPoint x="-340" y="451.63000000000045" as="targetPoint"/></mxGeometry></mxCell><mxCell id="77" value="Register as Client" style="html=1;endArrow=block;elbow=vertical;startArrow=none;endFill=1;strokeColor=#545B64;rounded=0;fontColor=#000000;exitX=0.856;exitY=1.009;exitDx=0;exitDy=0;exitPerimeter=0;strokeWidth=3;entryX=0.5;entryY=0;entryDx=0;entryDy=0;labelBackgroundColor=#FFFFFF;fontStyle=1;fontSize=13;" parent="1" target="79" edge="1"><mxGeometry width="100" relative="1" as="geometry"><mxPoint x="715.672" y="788.0030000000002" as="sourcePoint"/><mxPoint x="-178" y="451.63000000000045" as="targetPoint"/></mxGeometry></mxCell><mxCell id="82" value="" style="group" parent="1" vertex="1" connectable="0"><mxGeometry x="657" y="905.63" width="120" height="89" as="geometry"/></mxCell><mxCell id="84" value="" style="group" parent="82" vertex="1" connectable="0"><mxGeometry width="120" height="89" as="geometry"/></mxCell><mxCell id="79" value="Eureka Server" style="rounded=1;whiteSpace=wrap;html=1;labelBackgroundColor=none;fontSize=15;fontColor=#000000;strokeColor=#000000;strokeWidth=2;fillColor=#E6E6E6;align=center;verticalAlign=bottom;spacingBottom=9;fontStyle=1" parent="84" vertex="1"><mxGeometry width="120" height="89" as="geometry"/></mxCell><mxCell id="81" value="" style="shape=image;verticalLabelPosition=bottom;labelBackgroundColor=#ffffff;verticalAlign=top;aspect=fixed;imageAspect=0;image=data:image/svg+xml,PHN2ZyB4bWxucz0iaHR0cDovL3d3dy53My5vcmcvMjAwMC9zdmciIHdpZHRoPSIyNDQuMjU5NzgwODgzNzg5MDYiIGhlaWdodD0iMTYxLjQxOTMyNjc4MjIyNjU2IiB2aWV3Qm94PSItMC4wMDUwMDI2NDE1ODQ3MjQxODggMC4wMjA5MTg5NzQ2NTI4ODYzOSAyNDQuMjU5NzgwODgzNzg5MDYgMTYxLjQxOTMyNjc4MjIyNjU2Ij48ZGVmcz48c3R5bGU+LmF7ZmlsbDojNzdiYzFmO308L3N0eWxlPjwvZGVmcz48dGl0bGU+QXNzZXQgMTwvdGl0bGU+PHBhdGggY2xhc3M9ImEiIGQ9Ik0yMDguMzYsNjFjLTIuMjgtMTUuMjktNy0zMi41NC0xMy4zOS01MS42NEE3NS43OSw3NS43OSwwLDAsMSwxODYuMTksMjUsODIuMzcsODIuMzcsMCwwLDAsNTYuNDIsNDAuMSw1NC41Nyw1NC41NywwLDAsMSw5MC4wOSw1NC4yNWE1Ni45MSw1Ni45MSwwLDAsMC0zMS44MS05LjM4LDU4LjI4LDU4LjI4LDAsMCwwLDAsMTE2LjU3aDEzNC40QTUxLjQyLDUxLjQyLDAsMCwwLDIwOC4zNiw2MVpNODIuNzksMTQzLjQ3YTcsNywwLDEsMS0xLTkuOTFBNyw3LDAsMCwxLDgyLjc5LDE0My40N1ptMTExLjgzLTI0LjY4Yy0yMC4zNCwyNy4wOS02My43NiwxOC05MS42MSwxOS4yNiwwLDAtNC45My4yOC05LjksMS4xLDAsMCwxLjg4LS44LDQuMjgtMS42MywxOS41NS02Ljc2LDI4LjgtOC4xMiw0MC42OS0xNC4yMywyMi4zMi0xMS40NCw0NC41NS0zNi4zNSw0OS4wNi02Mi4yMy04LjUsMjQuOS0zNC4zNSw0Ni4zMi01Ny44OCw1NUMxMTMuMTQsMTIyLDg0LDEyNy44LDg0LDEyNy44MWwtMS4xOC0uNjNDNjMsMTE3LjU0LDYyLjQ1LDc0LjYzLDk4LjQzLDYwLjhjMTUuNzgtNi4wNywzMC44Ny0yLjczLDQ3LjkyLTYuOCwxOC4xOS00LjMyLDM5LjI1LTE4LDQ3LjgxLTM1Ljc5QzIwMy43Nyw0Ni42OSwyMTUuMyw5MS4yNCwxOTQuNjIsMTE4Ljc5WiIvPjwvc3ZnPg==;" parent="84" vertex="1"><mxGeometry x="21.529999999999973" y="6" width="74.26" height="49" as="geometry"/></mxCell><mxCell id="89" value="Config Server" style="rounded=1;whiteSpace=wrap;html=1;labelBackgroundColor=none;fontSize=15;fontColor=#000000;strokeColor=#000000;strokeWidth=2;fillColor=#E6E6E6;align=center;verticalAlign=bottom;spacingBottom=9;fontStyle=1" parent="1" vertex="1"><mxGeometry x="848" y="905.63" width="120" height="89" as="geometry"/></mxCell><mxCell id="90" value="" style="shape=image;verticalLabelPosition=bottom;labelBackgroundColor=#ffffff;verticalAlign=top;aspect=fixed;imageAspect=0;image=data:image/svg+xml,PHN2ZyB4bWxucz0iaHR0cDovL3d3dy53My5vcmcvMjAwMC9zdmciIHdpZHRoPSIyNDQuMjU5NzgwODgzNzg5MDYiIGhlaWdodD0iMTYxLjQxOTMyNjc4MjIyNjU2IiB2aWV3Qm94PSItMC4wMDUwMDI2NDE1ODQ3MjQxODggMC4wMjA5MTg5NzQ2NTI4ODYzOSAyNDQuMjU5NzgwODgzNzg5MDYgMTYxLjQxOTMyNjc4MjIyNjU2Ij48ZGVmcz48c3R5bGU+LmF7ZmlsbDojNzdiYzFmO308L3N0eWxlPjwvZGVmcz48dGl0bGU+QXNzZXQgMTwvdGl0bGU+PHBhdGggY2xhc3M9ImEiIGQ9Ik0yMDguMzYsNjFjLTIuMjgtMTUuMjktNy0zMi41NC0xMy4zOS01MS42NEE3NS43OSw3NS43OSwwLDAsMSwxODYuMTksMjUsODIuMzcsODIuMzcsMCwwLDAsNTYuNDIsNDAuMSw1NC41Nyw1NC41NywwLDAsMSw5MC4wOSw1NC4yNWE1Ni45MSw1Ni45MSwwLDAsMC0zMS44MS05LjM4LDU4LjI4LDU4LjI4LDAsMCwwLDAsMTE2LjU3aDEzNC40QTUxLjQyLDUxLjQyLDAsMCwwLDIwOC4zNiw2MVpNODIuNzksMTQzLjQ3YTcsNywwLDEsMS0xLTkuOTFBNyw3LDAsMCwxLDgyLjc5LDE0My40N1ptMTExLjgzLTI0LjY4Yy0yMC4zNCwyNy4wOS02My43NiwxOC05MS42MSwxOS4yNiwwLDAtNC45My4yOC05LjksMS4xLDAsMCwxLjg4LS44LDQuMjgtMS42MywxOS41NS02Ljc2LDI4LjgtOC4xMiw0MC42OS0xNC4yMywyMi4zMi0xMS40NCw0NC41NS0zNi4zNSw0OS4wNi02Mi4yMy04LjUsMjQuOS0zNC4zNSw0Ni4zMi01Ny44OCw1NUMxMTMuMTQsMTIyLDg0LDEyNy44LDg0LDEyNy44MWwtMS4xOC0uNjNDNjMsMTE3LjU0LDYyLjQ1LDc0LjYzLDk4LjQzLDYwLjhjMTUuNzgtNi4wNywzMC44Ny0yLjczLDQ3LjkyLTYuOCwxOC4xOS00LjMyLDM5LjI1LTE4LDQ3LjgxLTM1Ljc5QzIwMy43Nyw0Ni42OSwyMTUuMyw5MS4yNCwxOTQuNjIsMTE4Ljc5WiIvPjwvc3ZnPg==;" parent="1" vertex="1"><mxGeometry x="869.53" y="913.63" width="74.26" height="49" as="geometry"/></mxCell><mxCell id="91" value="Pull Environment&lt;br&gt;Configuration" style="html=1;endArrow=block;elbow=vertical;startArrow=none;endFill=1;strokeColor=#545B64;rounded=0;fontColor=#000000;exitX=0.856;exitY=1.009;exitDx=0;exitDy=0;exitPerimeter=0;strokeWidth=3;entryX=0.5;entryY=0;entryDx=0;entryDy=0;labelBackgroundColor=#FFFFFF;fontStyle=1;fontSize=13;" parent="1" edge="1"><mxGeometry width="100" relative="1" as="geometry"><mxPoint x="905.822" y="788.0030000000002" as="sourcePoint"/><mxPoint x="907.15" y="899.6300000000001" as="targetPoint"/></mxGeometry></mxCell><mxCell id="92" value="" style="html=1;endArrow=block;elbow=vertical;startArrow=none;endFill=1;strokeColor=#545B64;rounded=0;fontColor=#000000;exitX=0;exitY=0.5;exitDx=0;exitDy=0;strokeWidth=3;entryX=1;entryY=0.5;entryDx=0;entryDy=0;" parent="1" source="89" target="79" edge="1"><mxGeometry width="100" relative="1" as="geometry"><mxPoint x="253.5" y="457.8000000000002" as="sourcePoint"/><mxPoint x="840" y="945" as="targetPoint"/></mxGeometry></mxCell><mxCell id="93" value="Log Aggregation" style="html=1;endArrow=block;elbow=vertical;startArrow=none;endFill=1;strokeColor=#545B64;rounded=0;fontColor=#000000;exitX=0.856;exitY=1.009;exitDx=0;exitDy=0;exitPerimeter=0;strokeWidth=3;entryX=0.5;entryY=0;entryDx=0;entryDy=0;labelBackgroundColor=#FFFFFF;fontStyle=1;fontSize=13;" parent="1" target="95" edge="1"><mxGeometry width="100" relative="1" as="geometry"><mxPoint x="1235.672" y="794.003" as="sourcePoint"/><mxPoint x="342" y="457.63000000000045" as="targetPoint"/></mxGeometry></mxCell><mxCell id="97" value="Actuator&lt;br&gt;Monitoring" style="html=1;endArrow=block;elbow=vertical;startArrow=none;endFill=1;strokeColor=#545B64;rounded=0;fontColor=#000000;exitX=0.856;exitY=1.009;exitDx=0;exitDy=0;exitPerimeter=0;strokeWidth=3;entryX=0.5;entryY=0;entryDx=0;entryDy=0;labelBackgroundColor=#FFFFFF;fontStyle=1;fontSize=13;" parent="1" target="99" edge="1"><mxGeometry width="100" relative="1" as="geometry"><mxPoint x="1400.672" y="791.003" as="sourcePoint"/><mxPoint x="507" y="454.63000000000045" as="targetPoint"/></mxGeometry></mxCell><mxCell id="71" value="" style="rounded=1;whiteSpace=wrap;html=1;labelBackgroundColor=#FFFFFF;fontSize=13;fontColor=#000000;strokeColor=#000000;strokeWidth=2;fillColor=#E6E6E6;align=center;verticalAlign=middle;" parent="1" vertex="1"><mxGeometry x="495" y="905.63" width="120" height="89" as="geometry"/></mxCell><mxCell id="74" value="" style="sketch=0;aspect=fixed;html=1;points=[];align=center;image;fontSize=12;image=img/lib/mscae/Docker.svg;labelBackgroundColor=#FFFFFF;fontColor=#000000;strokeColor=#000000;strokeWidth=2;fillColor=none;" parent="1" vertex="1"><mxGeometry x="517.2" y="918.63" width="75.61" height="62" as="geometry"/></mxCell><mxCell id="66" value="" style="rounded=1;whiteSpace=wrap;html=1;labelBackgroundColor=#FFFFFF;fontSize=13;fontColor=#000000;strokeColor=#000000;strokeWidth=2;fillColor=#E6E6E6;align=center;verticalAlign=middle;" parent="1" vertex="1"><mxGeometry x="1016" y="905.63" width="120" height="89" as="geometry"/></mxCell><mxCell id="67" value="" style="shape=image;verticalLabelPosition=bottom;labelBackgroundColor=#ffffff;verticalAlign=top;aspect=fixed;imageAspect=0;image=data:image/png,iVBORw0KGgoAAAANSUhEUgAAAMgAAADICAYAAACtWK6eAAAkv0lEQVR4nOydCXhTVdrHj03S5KZZ2mxNSko32kIr0FLAAiMtKIzbJ6hUHFxwgdECagEriyiLbMouZVFAKY6MCJ8fzowyoyNQR21dSkFpxYJATWnapEmTNMvNcsv3RFKnYu7N0pPcpD2/5+nz0JyT97yk+d9zzz3veV/m1atXAQKB8E4M3Q4gEJEMEggCQQESCAJBARIIAkEBEggCQQESCAJBARIIAkEBEggCQcXVq1fD+lNUVET3fzliKZTz+IfuyJxPtx+RzPLly8P6fUUzSIQgZDPAnskZb5RkS1ZOyxQPotsfxDWQQCKEGdmS23LF3AcAAPz37sr6ixRj3kC3TwgkkIhAijGZa8YNXNPjpZuWjB4wk0aXEB6QQCKAo3cPfi6ewxzR87WyEUkvK3mxbPq8QgAkEPqZkpEwZEwSf7mXJuWxe4dso8ElRA+QQGhm9diBLwMAON7acsXcJ0uHJY4Lv1eIbpBAaGT7hLQ7ciXce6j6rBk3cB1asNMHEghN5Igwwdw8eaWvv0E8h3lzxcT02eHzDNETJBCaqJiYtgQAIPGnb0mWeEORUpASeq8Q14MEQgPTMsVpxcnCsgDeIqiYkOZtIY8IMUggYUbIZrAqJqa9Q7YwJyNXwn0ILdjDDxJImFkzNnmmjMsaE8RbWTtuSX8nR4ShvZEwggQSRnJEmHBOnuLFXphIWT0uGQUzhhEkkDBy7N4hmwEAA3tjY+og8ZJCOU8KzysEFUggYeKZfHlxMp/9GARTgqNTBlcK2Qz0twsD6EMOA0peLFg6WrkeAABlw0/GZd3+bL7iXhi2ENQggYSBTUWpT8u4rJtg2izLV6xCC/bQgwQSYqZlilJKssQbYduN5zCH7JmUsQK2XcRvQQIJMUtHK1cDAGJDYXtMEn/hzBxpfihsI66BBBJCyvIVN+fJ4h4K4RCsV25OWRtC+/0eJJAQMVzKFW4uTq0M9TgyLuu27RPS7g/1OP0VJJAQsXTUgDIAQFo4xpqbJ99TpBSIwzFWfwMJJARMyxSnlmRLwrnjLVheqHwpjOP1G5BAICPFmGBTUYr71koYznGLk4WlZfmKIeEcsz+ABAKZ0uHyB5P57PE0DM1aPHrAwRQBG+2NQAQJBCJKXixrxZjkNXSNL+Oy8soLFOj0IUSQQCBy7N4hmwAAtJ78m5OnWIoW7PBAAoFE6bDEm3LF3Kfp9gMAoDhw26AddDvRV0ACgYB7YV4+Mmkd3X50k8xnT3+pUDmZbj/6AkggEKiYmP54qpAzgW4/ejJnuHy9kheSCJd+BRJILylSCpJLssSb6fbjemRcVv6motTn6fYj2kEC6SUVE9JeCveeh7+UZInXTMsUoVIKvQAJpBeUDksszJVwH6HbDwqYr6Jgxl6BBBIkUozJ3nFL+kGYoeyqTvsRAMA5WPbcpAo5JRvHp9wK02Z/AgkkSF6/NR12MKL6kX9eKF1RrVoM0eYvLChIemu4lJsA225/AAkkCArlPMnUQeKlMG3uPK1eV9Vsal9V0/yBqtP+d5i2AQDKpaMGPAfZZr8ACSRAhGzGDUenDK4EAAhg2dRYnWc21Kr3dP/+yD8v/Nn9Miz7bkqyJU+j2oeBgwQSIM/mK+6VcVl3QDTpWv/1lRlNJjve/UJVs6n18I/tr0IcA3hqH76NSikEBhJIAOSIMHZZvmIVTJsnVcZdW+vUDde//vznP+/SWJ31MMdy3x0uGT0gkp+6RRxIIAGwZ1LGingOMweiSdPKmmavgmsy2a3umQUAQEAcD9U+DBAkED+ZmSPNH5PEXwjT5o7TrbPdC3Oy9q116u9OqoxvwBwTAJB87N4hWyHb7LMggfiJJ3sIC5Y9jdX5z6dPXHrPV7+VNc3LAQBmWOOCa7UPnyodljgWps2+ChKIH2yfkDZdxmXdBtGkc9F/mvx6TFzVbNIebtQ9CXHsX0C1D/0DCcQHRUqBZG6efA9Mm9UtnZsqG7R1/vaf/mHjQY3V+TFMH+I5zPEVE9NnwbTZF0EC8cHyQqX7FocPy54BdzXM/uSngFOGemYcFyw/wLVgxo2o9iE1SCAUlOUrcouThU/BtLm1Tv1Sg95mD/R9lQ3a2uqWTthh9QJPNDKCBCQQElIEbM7i0QMOAgCYsGxqrM5j2+rU/xfs+2d/8tNyA+76AZY/4Frtw4fRgp0cJBASygsUT8q4rGEQTZqmfnDuEaOd6ArWQIPehm+tU/emhJs3UO1DCpBAvFCkFEjn5CmgRtUevaBbV9NqJt3z8Jdtder3NVbnR3C8+pVUVPvQO0ggXjhw26BdAAA5RJOXl32h2gLDkNFOXJ36wbmZ7n/CsNeNp/ahBKbNvgASyHW8VKi8I5nPvg+iSefcTy8+GMzCnAz3THT0gg72ScHu2odob6QHSCA9UPJib5gzXL4eps36duvbu75r+xKmTTdP/vviNgDARZg2ZVzWHaj24W9BAunBgdsGvSDjsoZCNGmad+ISZfRvkVJAuseSI8JiUwRsjrc2rc1ln/vpxRkAAAcMR7tBtQ9/CxKIh2mZosHFyUKoNf8ON+qeq2o2NZG1l+UrxhUrBaSPWHPEXG55gYI0PH3Xd21f1bdboRbpiecwc/ZMylgO02Y0gwTi4dWbU9YBABiw7F024p/NO35xL1m7e2bYXJz6BgDgKpWdGYOlz+eIMK+ziBvPDGXorb89GZPEf25mjjQPps1oBQkEALBxfMpdqULOVJg2N3zbskRrc5F++csLFA+7Jwlf5z3iOcyMPZMySB85VzWbmjfXtpT11t/rQLUPPfR7gQyXciULCpKgnrmo11l3US3M3ff47pnBX3tjkviLipSCDLL2V765UnnZiH8ajK9kyLis27dPSCuBaTMa6fcC2VKUuggAoIBoUnX7+z9QXtH3TMpYFM9hBpJAgVMxIY1UUFqbyz1jQU8XhGof9nOBTMsUDylOFpbCtLn1VMuyZrOD9MlSkVKQPiaJ/+uX+bTW4teR2lwJ92G3v2Ttu75r+7ZeZ4UdzChcXqiEHdoSVfRbgUgxZsx7d2W9AwCIg2VT1WmvXvf1lbep+lRMSCsHAGDdvxvsBOUivQfYpqKUN6QYeezk7e//4J4NfwrAZZ8UJwvnlOUrBsO0GU30W4EsGT1gFgAgH6JJ08KqpoepFubTMsWDcyXcmcEOkMxn/6F0uJz0YUKz2eFaUa16IVj7JPTr2of9UiCFch63bETSSpg2D//Yvv3IeR3p1dtT/fb1nrOHh4Cie+cMly+jat91pvWQqtMOe8GeX16g6JenD/udQIRsBtgzOQN2MKJq7TdXNlF1KB0uv5uk+q2/t1i/IOOyCg7dmfU4Wbt7wb6wqukxAIA+ELu+mJOnWJojwvrdgr3fCWRGtmRirhhuyYLNtS2PndFaO6j6+LryB0JJlnhLjgiLJ2s/cl6nOvxjO6VggyDp2L1DKiDbjHj6lUDcC/M14wZC3QA7rbEceu6zJspbmkN3Zs2UcVmjSJoDmkE8CComplHm6Hr+859fAwCcD8I2Kcl89gP9rfZhvxJIxcT0Z+M5zJsgmnSt/bqZclGcI8KEJVnibRRdgsqcWJwsfLZQziMtadBkspsXnLz8cKBrHF/0t9qH/UYgUzISMkuyxKth2jzcqFty5Lye8rHq6nHJC0JUoo2/Z3LGDveaioytdeqvTmss+2EO6ql9WA7TZiTTbwSyeuzAVQAALix7Gqvz1MKqyxup+hTKefFTB4lhx0n9Sq6Y+6cZ2ZIxVH3mV11+EQBggzluSZZ47bRMEWnoS1+iXwjkpULlrbkSLtS4op1nWhc3m6mPYuyZnLHdjzoivcp1VT4yiXLxX9VsajncqHumN2N4gbl0tLJfBDP2eYHkiLC4FWOS34YZyq7qtB9cVdP8CVWf0mGJN+WKuQ/BGpOMVCHnDl81CKd/2LhXY3V+BnPcPFnc/RvHp9wC02Yk0ucFUjExbRHkPY8rt7//w9O+OpWPTApbDNOCgqRdKQI25e3j2q+bF8NesPeH2od9WiDTMsXK4mQh1Np8O0+r1zbobZSbcBvHp0xMFXLu9NMkjC/toPICBenmoZvX6lqrq1s6d0AYqyfJS0cNgFoSItLoswIRshnMiolp73gJ7QgajdVZu6FWvY+qT4qAjS0oSNodgFkoV/U5eYrn3LeTVH1mf/LTEgPuugBjvG48tQ/77IK9zwpkzdjkGTIuy1toR7A413995cEmk50yfU95geIxAEAmxHH9JWXPpAzKBXuD3mY5eE4L9dw9AECwqSilz9Y+7JMCyRFhvBmDpVATD5xUGXdsrVP/6GNc7pw8RaB7BMHspHtlTBJ//pSMhGyqPi98qXpXY3UehzUmuLbDPmbJ6AEPw7QZKfRJgRy7d8ir8RxmOkSThnnHqdP3gGsnBV8AAKQGaBtmDUL26rEDF1F1MNoJYt7xSw8BACwQxwVlI5JWK3mxfW6Lvc8J5Jl8+bhkPhtmRaarO063zmrQ2yiDEadkJGTBrmEYDLkS7oxpmWLKpNtHzuvURy/oYJeZ7pO1D/ucQJaOVq6H+f/SWJ0fPX3i0v/66ue5ckfCoSL2e3dl7fW1Jlj2hWoDAKAZ5sC5Ym5p6bBEyp39aKNPCeTQnVl/lnFZf4Bo0rnoP00+T+hNyxTfmCvhPhjkGFCrRnkYVTpcPo2qQ4PeZltRrXoI9vjlI5PW96UFe58RSJFSMMBH1GzAVLd0vlLZoD1D1UeKMYH7ih0hs8evzBkuX+Yr6nZVTXNVfbv1IMxxU4Wc8RUT05+AaZNO+oxAthSlvgwAIM1AGCgG3HV26t/OveyrX+lw+X0AAJgh9FCQcVnDNhWl+szYMu/EpRUAgE6YY/el2od9QiBl+Yqb8mRxQSdD8MbWOvWLWpuLMhrRfYWGcFIQavhHT0qyxBt8HZOtajZdOtyoo3zyFQTCiglpfSJdUNQLJEXA5m0uTn0b8sL879vq1B/46repKPVJGZfV2xy2IRMIACCuYmKaz32Zeccv7jbgrs9hDuypfRj1C/aoF8irfxj4DOSda8PUD849avSRr8p9ZS7JEsM+9w2d4mThvEI5T0rVR2tzXX3hi59hZ2aM3XFL+jtSjBlRa7NAiWqBTMsUK0uyJVD3Ho5e0K2taTX7zAjiORMOI+kctJ10EuL2TM7YRXXyEFzLzPhFvc4aSAyZP6S9fmt6yA6MhYOoFYgnz9RbAAARRLMXPZWbKCmU88TFyUKfIe9+AnMn3Su5Yu59M7IlPuPSPDmFVTDHjvbah1ErkNLh8pJkPpvyoFCAOOZ+enGGr4W5m5+MuH5FtephjdUJ9b49FBhw1+mdp1tnfnTZ8JWvvs1mh33rqRZo6Yk8CI9OGbw/WmsfRqVAlLxYxooxyetg2qxvt1bu+q7N55cIeO7ZV9U0H5W//u3NK6tVdwEALsH0BRItW2pbHsneX1cw78SlA76ikLtZ9/WVt1Wd9i9gOiLjsu58Nl9xD0yb4SIqBXLgtkHrAQAwzyAY5p245HPPwxsra5o/TNz9TdaKatWjGqvz+yBMQN3JNuCuCztPtz6Ttu/U4IWfNb2ttbkCekrmFv/CqqZHYJeZLstXvByNC/aoE0jpsMQRsE8Juq+2OWJMFuybtTaXa1VNc+XId74bdrixfSYAoB2ue37RUd3SOT97f13uvBOXtjeZ7EFv/h05r7tY3279K0zn4jnMnKN3D34Jps1wEFUCcS/My0cmQS3T7CFnx8T0r1qfHPnxS4XKe6QYM6jPpdnsANM/PH/gxsrTA/fXa54BAFyG7+rvaDncqFs24XB91rhDZ7f6s4YiI0eEcTcXpT7R+uTIL3Ml3KfguvnLeZXyaKt9GFUCWTRqwIOpQs6kEJlnyLisSSvGJL/f9tSo88sLlSXBZhBs0Ntsj3/80/aBe2ozDje2L/Rx9iLYp1i26pbONTdWns6e/mHjmqpmU9CzVqGChx26M/OFszPz1GUjFHtlXFaoNvhYr9ycsiZEtkNC1AikSClIWlCQ9FqYhktfPib5vZ9nFzS8OTnj6RwR5iu3lVeazY6u6R+e33y4UUf1pQhqH+SkyvjGuENnlzXobeZg3i9kM8C0THH+8Wk5FV8+MFRdkiVZ7UcOr14j47Lu2D4hjTLSOJKIGoFUTEhbBnnPwx+GPJore+3szLwrh+7MXKrkxQa7yORB9gv0ZoOxbITiph8fzf/3e3dlnSpOFs4NUWpUUubmyffmiLBw/y2DIioEUjossSBXwqVMaxNieCVZkjU/zy5oOT4t59VpmeJAj/PyKdpCvZP+CykCNr9iQtrj+tJRX2wuSq2RcVl0Jn0TVkyMjmDGiBeIFGOydtySfjBCzluIipOF5e/dlXXh+0eGVxYqeAP8fB/VrUtId9JzRBj/i+k3Lr70xIiLc/Lk++I5zLGhHM9f3DNXNNQ+jHiBvHJzSikAIItuP67jhlwx95EvHxh66eLj+QdLhyeOp9opLlIKqGaQkDAzR5p3fFrO9rMz8y6NSeKvAwBEWrhHzBNDZVCPKISCiBfIxm9bDla3dG4DAOB0++IFVqqQ86cdE9Orfnw0//OyEYpx3jrJuKyQL367WV6ovKlp1oiP3/rjoLriZOE8AEDElU1TddqrVlarCoceOLOEbl98QV5TOEJo0Nvaxx06W1akFGyaM1z+55Is8ROQC/9DQcZljd1clPr5Szcp/3PwXPvuDbUt7zeZ7N2ipppBer2TniPCsFlDE6fPGCyZ5XlEG4kXPke9zvrBxm9btlc2aP9DtzP+EvEC6aaq2aSqaja9uLIaW79nUsYzY5L4zwMASOv00UU8h3nznDy5+6dpS23LivXfXPlLqB6fFip4nPkjFM+WZEkWR+Jn4eGqqtP+wcKqy4uPnNdTJt6LRKJGIN006G2WcYfOritSCt4oyRTPnDFYUhrPYQ6i2y8vpMwvSHrrsVzZC5Czy/9CcbLw7i8fGPpoBAvDUq+zvrvx25YdlQ3aOrqdCZZInIr9oqrZpJt34tLm7P11Q7bUtswCAFyh2ydveMRLtQ8S7FOs9AgVh0vVaX/r/n/8OHjogTOzolkcIJoF0o3W5nIt/KxpX9q+U9k7T7c+YcBdp+j2KUDCsg8SBjoON+q23vO3c7kpe089fuS8HmpSOrqIeoF002SyW+aduPRm9v66gi21LVMAAD/Q7VM/wVbd0rnpxsrTg6Z/2Dj/g586Gul2CCZ9RiDdaG0usPCzpr+l7Ts1fO7xi/ddNuJQM5mHgGidQdSHG3Uve6KIn/NVVCha6XMC6abJZHfuOtP2fvqbdbcsqLo8RmN1fkm3TySE/Ew6ZIzVLZ0v3Fh5OnP6h40vVTWb+sStFBlR9xQrGLaeUte8Va/5w4zBkuLygqR5qULOFJhFPfsJFw836nbvPNP6Vm9C66ONfiEQcK0uxtVdZ9pOuH/KRigyF48asFHGZd1Nt19RQOuW2pZV67+5sldrcznpdibc9BuB9GTrKfX5t+o1UyYNjM+fMzxxbnGy8EGYeX0DJBTZ3XuNAXd9f/Bc+84NtS3v9Ob4brTTZ9cgvjDaCXDkvK5u4pGGWWPf/T6lXmfdG+I0oNHCxS21LQ9k76/Lm3fi0u7+LA7QnwXSkxq1WTP0wJnZ9/+jcdBJlXGj+wJKt0/hxoC7anaebn0obd+p3IWfNR0KNBtKX6Vf3mKRceS87tKR87ryQgVv+Z5JGUtzxdznQn0ORWt10voUS2N1nnnnB+3z67+58rHWFpF3e7SCBOKFGrXZOvTAmWU5ImzbcyOT/vxorqwUAODv4aiAaNDbaNkHuWzEP9lQ27L94Ln2Y0Y7gZRBArrFoqBBb9M+/vFPawbuqU053Nhe1hduvTRW5+cLqi6PSn+zbvKuM21/R+KgBgnED5rNDmL6h+e33Vh5Wrm/XjMPYhhLuO7zuy4b8f+de/zihOz9deO3nlJ/G6Zxox4kkABo0Nssj3/8046Be2pzdp5unQEhE3rI1x8aq/MfC6ouD05/s27arjNtJ33VPUH8FiSQIGg2O8C8E5f+mrj7m/QV1aoHNVZnNd0+XYfjpMq4f+7xiyOz99f9z9ZT6vN0OxStIIH0Ak9O3oPy178du7JaNQkA8B3dPtXrrAfGvvt96sQjDY/tOtNWa7RHW6hXZIEEAomVNc3/Ttz9zfAV1ao7NVbnR37ePgWdR/c6zCdVxu33/6Mxe+iBMzNr1GY1JLv9HiQQiGhtLrCqpvkj+evf3jn3+MVRqk77pyEe0lWvs24b++73yolHGp45cl7Xp85iRAJIICFi15m2upS9p2597F8XxtbrfinWDzNtUftJlXHt/f9oTB164ExZjdoMtZYH4r+gjcIQU9mgrXb/TMsUpW8qSl2dzGff3yPUPtAFgu1wY/v6hVVNrzabHZGYJ6zPgWaQMHHkvP5iyt5TMx7714Vh9TrrDk8FJ3/3QVT76zVLbqw8rZz+4flVSBzhA80gYaayQdtQ2aCdlyPCVu6ZlPGsj+6uw43tzyysatrRbHag4EE6uHr1alh/ioqK6P4vI6KY5cuXh/X7im6xEAgKkEAQCAqQQBAICpBAEAgKkEAQCAqQQBAICpBAEAgKkEAQCAqQQBAICpBAEAgKkEAQCAqQQBAICpBAEAgKkEAQCAqQQBAICpBAEAgKkEAQCAqQQBAICpBAEAgKaEnawOFwuAkJCUtCOUZnZ+dHZrP5NzlzFQrFYgBAnLf+drv9M71e/0n377GxsUlisbg0kDEdDgfR1dXl8GQsaXU4HE1Op/MHh8Nh8ddGbGwsTywWLyJr7+zsfN9sNtf5ay8+Pv5WDMNIEwF0dXXVtrW1He35mkKhKAcACLz1t9vtn+v1+n91/y4SiWaw2ewhZOa1Wu2rLpfL7/+/x+fxGIZN8tbG4/GOAwBOBGKvN9AiEAaDEYdh2LJQjoHjeDsA4DcCwTBsAQBASvKW9QCAXwUSExOTFKiPGIZ5e9kJAPjSaDS+ZTAY3iEI6nocMTExPKpxcRy/AADwSyBxcXFykUh0yP09Julia2trG3b9ixiGPUtRMGgjAOBXgbDZ7BIMw6aS+SAUCtt0Ot1Of/ztJjY29g9knwGLxXKFUyDoFiv0sAAARUKhcH9KSsoVqVS6JCYmJqRl3cC1L5lQIpEcoxCHXa/X32exWC6E0g8ej1fOYrG8Xjmo3hYidwIGCSS8yPh8/trU1NRaDoejCOVAYrF4HYPByCNrt9lsrxgMhmOh9AFcu1tIlUqlpLeMJMSGyJ2A6csCieREa7mJiYnHOBwO2dW9V4jF4gcxDPszWTtBEJ9otdq1oRjbGxwOZxGHw0kL13gw6asCwW0221G6naCCwWAMl8lkf42JgfsnEAgEw923cz3y/17Pxebm5qkul8sOdWBqOAkJCeVhHA8atCzSCYKw2Wy2vcG+37MolJC1m83m2TiO97Y8GiU2m201juNne7zE8Kw3RBwOJzU2NnY0g8EYTXURYjKZkwUCwR0Gg+EjGD6xWKy4hISEtyj+rvb29vaZBEFYYYwXCBiGzYyLi9tosVguhnvs3kCLQHAcN6vV6tnBvFcgEBRiGDaLrJ0giL9rNJq/9MpBP8Bx/GRHRwdl/Q+hUJgTHx9/0D1bkPXh8XgzYQjEPRMpFIoDDAYjn6yP2WyeYzKZPu/tWEHCFYvFuy0Wy2Saxg+KqLrFiomJYSYkJGyh6GLVarXPh9ElSoxGY4Narb6FIIgGsj6xsbETY2JibujtWGKx+Gkmk3kvWbvdbt+n0Wje7O04vYHJZE4SCARe9zcilagSiFwuX8JgMArJ2s1m83NWq/VceL2ixuFw6Do6OuZSdJFgGJbZmzHi4uJy+Xz+qxRdGjUazTO9GQMWCQkJS+n2IRCiRiACgaCAw+G8SNbudDr/3d7evju8XvmH2WyuAgDoyNpjYmKyg7XN4XCSEhMT3bdoHJIu6paWltucTmfY1x3eYDAYxfHx8XfT7Ye/RI1AEhISNnsWwd7o0uv187u6uiKyBrjHL9KHBhiGiYO1nZiYWAEAGEjWrtfr5+E4filY+6FAJBLtCsdmKQyiQiAymWw+g8EYT9Zus9mWWiyWs+H1KmCgi1ehUCxiMBj3kLXbbLa1JpPpfdjjBsBXJK8nicXip8LsS1BEvEDi4uKG8Hi8DWTtBEFUazSaV8LrVVDIyBpwHO8I1JgnCHE9WTtBEB+p1eoXurro2y81GAwrAQBab218Pr+cwWBEfIWziBZITEyMezreQrHp5ero6JhPEJFdLJ/P52dRBP+5v8w/BmKPw+HIhELh6xRdrrS1tdF+hbbb7bbOzs5NJM0DxGLxyjC7FDARLRCJRDKbxWL9kawdx/FXTCYT2TQeMSQkJCynaO7AcdzvJ28xMTFMmUz2AYPBSKfodgNBEO2BeRkaDAZDBdkDCh6PtzguLi4l/F75T8QKhMvlZvN4vM1k7QRB1La2tkb8FUgqlT7JZDJnkLU7nc5PA5kBhULhIiaTSfqo20OSSCRaEIifocLpdFqMRiPZI+YYgUDg7VwQ5ZGAcBKxApFKpa9QhT13dHQs7OrqcobXK/+Ji4tLGzhw4EE+n0/56NlsNv81QNN+7ZnExcWVs9nskARDBopOpztIEMS33towDHuCzWanXveyIzye+SYiF0kymWwGg8GYQtbucDheM5lMVeH16rfweLx5HA7n+oNCLM/GXzYAYAjF2ukXCIKoNhqNfwuRi0K5XL5PpVLdQ+NC/dfvl9FoXCsSibw9UWPK5fI9KpVqUg8/I6YOfMQJhMPhKHk8HlUg449qtZr22wcWizWVxSLblvELXXt7+31dXV0hu51gMBhTeTze7SaTKeTnPkj49QMymUz/JxAIvmYymaOv78RgMG69zs+IuTOIuFsssVi8wT3zkrXr9fr5RKQ/tvKNUaPR3G+xWNSQ7NnIGhISElbFxMRQzmQh5Ndx3bODTqebRfblFwqFERkOH1ECEYlEd7PZ7AfI2l0u1/5wnIILMQ1tbW15ZrP5OAxjDofjoNlsJg3QZDAYIyUSCVUsWCj5zffLYrF873A4vK65WCzWBIFAMDFsnvlJxAjEfWsVHx+/j6ydIIgLarU6IgLugoEgiEaz2bzg559/vslisVyGZPacRqN5tr29fRdBEKfIOvF4vDUcDuf6hTAt6PX6V90fh7c2iUSyk8lkksWU0ULECEQikayiOgRlNBoXO53OzvB61WuuOByOfTqd7haVSjVYo9FscblcZki2DW1tbZMdDkd7V1cXYTQaV1H05UkkkpBmkSHhd2H8Vqu1HsfxCpL+2UKh8KHQu+U/EbFIF4vFf4yNjX2YrN3hcBymOabod9hstmU4jp++7uUugiBsDodDDwBoxnFcH6rxDQbDUxaL5dcASJPJ9HehUPgJg8Hwet7C/fny+fzdnZ2dXh+3hhOtVrs8OTl5OgBAfn0bj8crdzgcB+jx7PfQLhAWi5UgFAoPUvii1mq1j0VapC6O4zW+ThSGcOwNer3+UM/Xurq6utrb2x9PTEw8TxL6HiuVSt+2WCxDQ/nkzB+cTqfRbDa/xuPxfpc4gsFgZGEY9jg9nv0e2m+xJBLJaorcTe4r5SK73R5QZr6+jNPpPNba2rrYW5vFYmm22Ww7KN4+WCwWk2Y7CSd6vX43AKCVpJkqjCas0CoQgUAwBsMw0qA6l8v1scFgeDu8XkU2ZrP5UBfFzl9HR8d6t1bI2vl8/osMBiPQRG7QcblcHe6LH91++II2gcTGxookEslfKXxo1Wg0j9AZrh2N4Djebjabn6XoIlcoFNvC6BIpBoPhgNPp/IZuP6igTSBisfgFAABpJKfRaFyB43hbeL3qG2g0mn0EQXxN1h4bGztbIBD4CngMOe6Ln9FoJD3TEgnQIhA+nz8Kw7A5ZO0EQVR1dHTQmoEj2nFfYKjahULhathJ64LBbDYfJQiimm4/yAj7U6zY2FhMKpUepkgyABgMxpDU1NTG3oxjs9neVavVIS2xEMkYDIZjAoHgIyaTeYe3dhaLdUt8fPwDer3+3fB79188T9+eSExMPEv3mtgbYReIpy6Ir0MypMdTA4B007G/oNPpnkpMTPzePWF4a4+Pj3/NarUex3FcE37v/ovFYvnBZrMdxDAsojYJAR2KZTAYN4d7zP6KxWJRmc1mqtoc0kjJmWsymcKWTDsQIm5KQ8DFZDJtIUucAK4dWHoqLi6uV4nrYOCeRRwOxy66/bgeJJA+Do7jWoPBMJ+iC08sFu+PhAW7Wq12z2YhC88JBvo/FUTI8ZR++w9ZO5PJHCsQCP4UgqEDyuZIEISls7OTKvdy2Lnh6tXwhjjV1NQU6fV6GItwSgiCuIjjeG3P1+Li4u4GAHjN6EcQxDkcx7/v/j0mJiYBw7Bbyew7HI4qp9MJfXEbExPDwTDsfyjG/drpdDYFapfFYqXHxsYWUHRptVgsv4goLi7uLrJDawRB/Ijj+Hfdv3M4nLEMBsNrSiMcx08SBEF6e+eNmJgYPoZht5G1Z2Zm1mdmZpImA4dN2AWCQEQT6BYLgaAACQSBoAAJBIGgAAkEgaAACQSBoAAJBIGgAAkEgaDg/wMAAP//keBfbcwKCyYAAAAASUVORK5CYII=;" parent="1" vertex="1"><mxGeometry x="1037" y="912.63" width="79" height="79" as="geometry"/></mxCell><mxCell id="95" value="" style="rounded=1;whiteSpace=wrap;html=1;labelBackgroundColor=#FFFFFF;fontSize=13;fontColor=#000000;strokeColor=#000000;strokeWidth=2;fillColor=#E6E6E6;align=center;verticalAlign=middle;" parent="1" vertex="1"><mxGeometry x="1177" y="905.63" width="120" height="89" as="geometry"/></mxCell><mxCell id="99" value="" style="rounded=1;whiteSpace=wrap;html=1;labelBackgroundColor=#FFFFFF;fontSize=13;fontColor=#000000;strokeColor=#000000;strokeWidth=2;fillColor=#E6E6E6;align=center;verticalAlign=middle;" parent="1" vertex="1"><mxGeometry x="1342" y="905.63" width="120" height="89" as="geometry"/></mxCell><mxCell id="104" value="" style="group" parent="1" vertex="1" connectable="0"><mxGeometry x="1199" y="526" width="168" height="60" as="geometry"/></mxCell><mxCell id="14" value="&lt;font color=&quot;#ffffff&quot; style=&quot;font-size: 13px&quot;&gt;Notification&lt;/font&gt;" style="rounded=1;whiteSpace=wrap;html=1;fontColor=#000000;strokeColor=#000000;spacingLeft=20;align=left;fontStyle=1" parent="104" vertex="1"><mxGeometry width="168" height="60" as="geometry"/></mxCell><mxCell id="24" value="" style="shape=image;verticalLabelPosition=bottom;labelBackgroundColor=#ffffff;verticalAlign=top;aspect=fixed;imageAspect=0;image=data:image/svg+xml,PHN2ZyB4bWxucz0iaHR0cDovL3d3dy53My5vcmcvMjAwMC9zdmciIHdpZHRoPSI2NC4wNTQ1NTc4MDAyOTI5NyIgaGVpZ2h0PSI2My45ODUyNDg1NjU2NzM4MyIgdmlld0JveD0iLTAuMDU0MjEyMDE1MTIyMTc1MjIgLTAuMDE4NTM0NzYyNzg0ODM4Njc2IDY0LjA1NDU1NzgwMDI5Mjk3IDYzLjk4NTI0ODU2NTY3MzgzIj48cGF0aCBkPSJNNTguMiAzLjM2NWEyOS41MDMgMjkuNTAzIDAgMCAxLTMuNDE5IDYuMDY0QTMyLjA5NCAzMi4wOTQgMCAxIDAgOS45NjUgNTUuMzcybDEuMTg2IDEuMDQ3YTMyLjA4IDMyLjA4IDAgMCAwIDUyLjY3LTIyLjI1M2MuODc1LTguMTctMS41MjQtMTguNTEtNS42Mi0zMC44ek0xNC41MyA1NS41NThhMi43NDQgMi43NDQgMCAxIDEtLjQwNC0zLjg1NyAyLjc0NCAyLjc0NCAwIDAgMSAuNDA0IDMuODU3em00My41MzgtOS42MWMtNy45MiAxMC41NS0yNC44MyA2Ljk5LTM1LjY3MiA3LjUwMiAwIDAtMS45MjIuMTEzLTMuODU3LjQzIDAgMCAuNzMtLjMxIDEuNjYzLS42NjMgNy42MTQtMi42NSAxMS4yMTMtMy4xNiAxNS44MzgtNS41NCA4LjcwOC00LjQyNyAxNy4zMjItMTQuMTIyIDE5LjExMi0yNC4yLTMuMzEzIDkuNjk1LTEzLjM3MyAxOC4wMzItMjIuNTMgMjEuNDE4LTYuMjc2IDIuMzEzLTE3LjYxNCA0LjU2Ni0xNy42MTQgNC41NjZsLS40NTctLjI0NWMtNy43MTQtMy43NS03Ljk1Mi0yMC40NTcgNi4wNzctMjUuODQ1IDYuMTQzLTIuMzY2IDEyLjAyLTEuMDY3IDE4LjY1NC0yLjY1IDcuMDg0LTEuNjgzIDE1LjI4LTYuOTkgMTguNjE1LTEzLjkxNiAzLjczIDExLjA4IDguMjI0IDI4LjQyMi4xNjYgMzkuMTV6IiBmaWxsPSIjNjhiZDQ1Ii8+PC9zdmc+;imageBackground=default;" parent="104" vertex="1"><mxGeometry x="118" y="15" width="32" height="32" as="geometry"/></mxCell><mxCell id="105" value="" style="group" vertex="1" connectable="0" parent="1"><mxGeometry x="1200" y="362" width="168" height="60" as="geometry"/></mxCell><mxCell id="106" value="&lt;font color=&quot;#ffffff&quot; style=&quot;font-size: 13px&quot;&gt;Fraud&lt;br&gt;Learning&lt;br&gt;&lt;/font&gt;" style="rounded=1;whiteSpace=wrap;html=1;fontColor=#000000;strokeColor=#000000;spacingLeft=20;align=left;fontStyle=1" vertex="1" parent="105"><mxGeometry width="168" height="60" as="geometry"/></mxCell><mxCell id="107" value="" style="shape=image;verticalLabelPosition=bottom;labelBackgroundColor=#ffffff;verticalAlign=top;aspect=fixed;imageAspect=0;image=data:image/svg+xml,PHN2ZyB4bWxucz0iaHR0cDovL3d3dy53My5vcmcvMjAwMC9zdmciIHdpZHRoPSI2NC4wNTQ1NTc4MDAyOTI5NyIgaGVpZ2h0PSI2My45ODUyNDg1NjU2NzM4MyIgdmlld0JveD0iLTAuMDU0MjEyMDE1MTIyMTc1MjIgLTAuMDE4NTM0NzYyNzg0ODM4Njc2IDY0LjA1NDU1NzgwMDI5Mjk3IDYzLjk4NTI0ODU2NTY3MzgzIj48cGF0aCBkPSJNNTguMiAzLjM2NWEyOS41MDMgMjkuNTAzIDAgMCAxLTMuNDE5IDYuMDY0QTMyLjA5NCAzMi4wOTQgMCAxIDAgOS45NjUgNTUuMzcybDEuMTg2IDEuMDQ3YTMyLjA4IDMyLjA4IDAgMCAwIDUyLjY3LTIyLjI1M2MuODc1LTguMTctMS41MjQtMTguNTEtNS42Mi0zMC44ek0xNC41MyA1NS41NThhMi43NDQgMi43NDQgMCAxIDEtLjQwNC0zLjg1NyAyLjc0NCAyLjc0NCAwIDAgMSAuNDA0IDMuODU3em00My41MzgtOS42MWMtNy45MiAxMC41NS0yNC44MyA2Ljk5LTM1LjY3MiA3LjUwMiAwIDAtMS45MjIuMTEzLTMuODU3LjQzIDAgMCAuNzMtLjMxIDEuNjYzLS42NjMgNy42MTQtMi42NSAxMS4yMTMtMy4xNiAxNS44MzgtNS41NCA4LjcwOC00LjQyNyAxNy4zMjItMTQuMTIyIDE5LjExMi0yNC4yLTMuMzEzIDkuNjk1LTEzLjM3MyAxOC4wMzItMjIuNTMgMjEuNDE4LTYuMjc2IDIuMzEzLTE3LjYxNCA0LjU2Ni0xNy42MTQgNC41NjZsLS40NTctLjI0NWMtNy43MTQtMy43NS03Ljk1Mi0yMC40NTcgNi4wNzctMjUuODQ1IDYuMTQzLTIuMzY2IDEyLjAyLTEuMDY3IDE4LjY1NC0yLjY1IDcuMDg0LTEuNjgzIDE1LjI4LTYuOTkgMTguNjE1LTEzLjkxNiAzLjczIDExLjA4IDguMjI0IDI4LjQyMi4xNjYgMzkuMTV6IiBmaWxsPSIjNjhiZDQ1Ii8+PC9zdmc+;imageBackground=default;" vertex="1" parent="105"><mxGeometry x="118" y="15" width="32" height="32" as="geometry"/></mxCell><mxCell id="108" value="" style="html=1;endArrow=block;elbow=vertical;startArrow=none;endFill=1;strokeColor=#545B64;rounded=0;fontColor=#000000;strokeWidth=3;entryX=1;entryY=0.5;entryDx=0;entryDy=0;exitX=0.5;exitY=0;exitDx=0;exitDy=0;edgeStyle=orthogonalEdgeStyle;" edge="1" parent="1" source="106" target="11"><mxGeometry width="100" relative="1" as="geometry"><mxPoint x="1099" y="403" as="sourcePoint"/><mxPoint x="1210" y="401.9999999999998" as="targetPoint"/><Array as="points"><mxPoint x="1284" y="303"/></Array></mxGeometry></mxCell><mxCell id="109" value="&lt;span style=&quot;color: rgb(0, 0, 0); font-size: 13px; font-weight: 700;&quot;&gt;Sync HTTP&amp;nbsp;&lt;/span&gt;&lt;br style=&quot;color: rgb(0 , 0 , 0) ; font-size: 13px ; font-weight: 700&quot;&gt;&lt;span style=&quot;color: rgb(0, 0, 0); font-size: 13px; font-weight: 700;&quot;&gt;Communication&lt;/span&gt;" style="edgeLabel;html=1;align=center;verticalAlign=middle;resizable=0;points=[];labelBackgroundColor=#FFFFFF;" vertex="1" connectable="0" parent="108"><mxGeometry x="-0.0344" y="1" relative="1" as="geometry"><mxPoint as="offset"/></mxGeometry></mxCell><mxCell id="28" value="" style="shape=cylinder3;whiteSpace=wrap;html=1;boundedLbl=1;backgroundOutline=1;size=15;fontColor=#FFFFFF;strokeColor=#000000;strokeWidth=3;fillColor=none;align=left;" parent="1" vertex="1"><mxGeometry x="761" y="158" width="64" height="89" as="geometry"/></mxCell><mxCell id="29" value="" style="shape=image;verticalLabelPosition=bottom;labelBackgroundColor=#ffffff;verticalAlign=top;imageAspect=0;image=data:image/svg+xml,PHN2ZyB4bWxucz0iaHR0cDovL3d3dy53My5vcmcvMjAwMC9zdmciIGhlaWdodD0iMjMuNTI0NTc0Mjc5Nzg1MTU2IiB2aWV3Qm94PSIxLjQ4OTM3OTg4MjgxMjUgMS4wMzk0ODk5ODQ1MTIzMjkgMjIuNzA0MzY4NTkxMzA4NTk0IDIzLjUyNDU3NDI3OTc4NTE1NiIgd2lkdGg9IjIyLjcwNDM2ODU5MTMwODU5NCI+PHN0eWxlPi5Ce3N0cm9rZS1saW5lY2FwOnJvdW5kfS5De3N0cm9rZS1saW5lam9pbjpyb3VuZH0uRHtzdHJva2UtbGluZWpvaW46bWl0ZXJ9LkV7c3Ryb2tlLXdpZHRoOi43MTZ9PC9zdHlsZT48ZyBmaWxsPSJub25lIiBzdHJva2U9IiNmZmYiPjxwYXRoIGQ9Ik0xOC45ODMgMTguNjM2Yy4xNjMtMS4zNTcuMTE0LTEuNTU1IDEuMTI0LTEuMzM2bC4yNTcuMDIzYy43NzcuMDM1IDEuNzkzLS4xMjUgMi40LS40MDIgMS4yODUtLjU5NiAyLjA0Ny0xLjU5Mi43OC0xLjMzLTIuODkuNTk2LTMuMS0uMzgzLTMuMS0uMzgzIDMuMDUzLTQuNTMgNC4zMy0xMC4yOCAzLjIyNy0xMS42ODctMy4wMDQtMy44NC04LjIwNS0yLjAyNC04LjI5Mi0xLjk3NmwtLjAyOC4wMDVjLS41Ny0uMTItMS4yLS4xOS0xLjkzLS4yLTEuMzA4LS4wMi0yLjMuMzQzLTMuMDU0LjkxNCAwIDAtOS4yNzctMy44MjItOC44NDYgNC44MDcuMDkyIDEuODM2IDIuNjMgMTMuOSA1LjY2IDEwLjI1QzguMjkgMTUuOTg3IDkuMzYgMTQuODYgOS4zNiAxNC44NmMuNTMuMzUzIDEuMTY3LjUzMyAxLjgzNC40NjhsLjA1Mi0uMDQ0YTIuMDEgMi4wMSAwIDAgMCAuMDIxLjUxOGMtLjc4Ljg3Mi0uNTUgMS4wMjUtMi4xMSAxLjM0Ni0xLjU3OC4zMjUtLjY1LjkwNC0uMDQ2IDEuMDU2LjczNC4xODQgMi40MzIuNDQ0IDMuNTgtMS4xNjJsLS4wNDYuMTgzYy4zMDYuMjQ1LjI4NSAxLjc2LjMzIDIuODQycy4xMTYgMi4wOTMuMzM3IDIuNjg4LjQ4IDIuMTMgMi41MyAxLjdjMS43MTMtLjM2NyAzLjAyMy0uODk2IDMuMTQzLTUuODEiIGZpbGw9IiMwMDAiIHN0cm9rZT0iIzAwMCIgc3Ryb2tlLWxpbmVjYXA9ImJ1dHQiIHN0cm9rZS13aWR0aD0iMi4xNDkiIGNsYXNzPSJEIi8+PHBhdGggZD0iTTIzLjUzNSAxNS42Yy0yLjg5LjU5Ni0zLjEtLjM4My0zLjEtLjM4MyAzLjA1My00LjUzIDQuMzMtMTAuMjggMy4yMjgtMTEuNjg3LTMuMDA0LTMuODQtOC4yMDUtMi4wMjMtOC4yOTItMS45NzZsLS4wMjguMDA1YTEwLjMxIDEwLjMxIDAgMCAwLTEuOTI5LS4yMDFjLTEuMzA4LS4wMi0yLjMuMzQzLTMuMDU0LjkxNCAwIDAtOS4yNzgtMy44MjItOC44NDYgNC44MDcuMDkyIDEuODM2IDIuNjMgMTMuOSA1LjY2IDEwLjI1QzguMjkgMTUuOTg3IDkuMzYgMTQuODYgOS4zNiAxNC44NmMuNTMuMzUzIDEuMTY3LjUzMyAxLjgzNC40NjhsLjA1Mi0uMDQ0YTIuMDIgMi4wMiAwIDAgMCAuMDIxLjUxOGMtLjc4Ljg3Mi0uNTUgMS4wMjUtMi4xMSAxLjM0Ni0xLjU3OC4zMjUtLjY1LjkwNC0uMDQ2IDEuMDU2LjczNC4xODQgMi40MzIuNDQ0IDMuNTgtMS4xNjJsLS4wNDYuMTgzYy4zMDYuMjQ1LjUyIDEuNTkzLjQ4NCAyLjgxNXMtLjA2IDIuMDYuMTggMi43MTYuNDggMi4xMyAyLjUzIDEuN2MxLjcxMy0uMzY3IDIuNi0xLjMyIDIuNzI1LTIuOTA2LjA4OC0xLjEyOC4yODYtLjk2Mi4zLTEuOTdsLjE2LS40NzhjLjE4My0xLjUzLjAzLTIuMDIzIDEuMDg1LTEuNzkzbC4yNTcuMDIzYy43NzcuMDM1IDEuNzk0LS4xMjUgMi4zOS0uNDAyIDEuMjg1LS41OTYgMi4wNDctMS41OTIuNzgtMS4zM3oiIGZpbGw9IiMzMzY3OTEiIHN0cm9rZT0ibm9uZSIvPjxnIGNsYXNzPSJFIj48ZyBjbGFzcz0iQiI+PHBhdGggZD0iTTEyLjgxNCAxNi40NjdjLS4wOCAyLjg0Ni4wMiA1LjcxMi4yOTggNi40cy44NzUgMi4wNSAyLjkyNiAxLjYxMmMxLjcxMy0uMzY3IDIuMzM3LTEuMDc4IDIuNjA3LTIuNjQ3bC42MzMtNS4wMTdNMTAuMzU2IDIuMlMxLjA3Mi0xLjU5NiAxLjUwNCA3LjAzM2MuMDkyIDEuODM2IDIuNjMgMTMuOSA1LjY2IDEwLjI1QzguMjcgMTUuOTUgOS4yNyAxNC45MDcgOS4yNyAxNC45MDdtNi4xLTEzLjRjLS4zMi4xIDUuMTY0LTIuMDA1IDguMjgyIDEuOTc4IDEuMSAxLjQwNy0uMTc1IDcuMTU3LTMuMjI4IDExLjY4NyIgY2xhc3M9IkMiLz48cGF0aCBkPSJNMjAuNDI1IDE1LjE3cy4yLjk4IDMuMS4zODJjMS4yNjctLjI2Mi41MDQuNzM0LS43OCAxLjMzLTEuMDU0LjQ5LTMuNDE4LjYxNS0zLjQ1Ny0uMDYtLjEtMS43NDUgMS4yNDQtMS4yMTUgMS4xNDctMS42NTItLjA4OC0uMzk0LS42OS0uNzgtMS4wODYtMS43NDQtLjM0Ny0uODQtNC43Ni03LjI5IDEuMjI0LTYuMzMzLjIyLS4wNDUtMS41Ni01LjctNy4xNi01Ljc4MlM3Ljk5IDguMTk2IDcuOTkgOC4xOTYiIHN0cm9rZS1saW5lam9pbj0iYmV2ZWwiLz48L2c+PGcgY2xhc3M9IkMiPjxwYXRoIGQ9Ik0xMS4yNDcgMTUuNzY4Yy0uNzguODcyLS41NSAxLjAyNS0yLjExIDEuMzQ2LTEuNTc4LjMyNS0uNjUuOTA0LS4wNDYgMS4wNTYuNzM0LjE4NCAyLjQzMi40NDQgMy41OC0xLjE2My4zNS0uNDktLjAwMi0xLjI3LS40ODItMS40NjgtLjIzMi0uMDk2LS41NDItLjIxNi0uOTQuMjN6Ii8+PHBhdGggZD0iTTExLjE5NiAxNS43NTNjLS4wOC0uNTEzLjE2OC0xLjEyMi40MzMtMS44MzYuMzk4LTEuMDcgMS4zMTYtMi4xNC41ODItNS41MzctLjU0Ny0yLjUzLTQuMjItLjUyNy00LjIyLS4xODRzLjE2NiAxLjc0LS4wNiAzLjM2NWMtLjI5NyAyLjEyMiAxLjM1IDMuOTE2IDMuMjQ2IDMuNzMzIiBjbGFzcz0iQiIvPjwvZz48L2c+PGcgZmlsbD0iI2ZmZiIgY2xhc3M9IkQiPjxwYXRoIGQ9Ik0xMC4zMjIgOC4xNDVjLS4wMTcuMTE3LjIxNS40My41MTYuNDcycy41NTgtLjIwMi41NzUtLjMyLS4yMTUtLjI0Ni0uNTE2LS4yODgtLjU2LjAyLS41NzUuMTM2eiIgc3Ryb2tlLXdpZHRoPSIuMjM5Ii8+PHBhdGggZD0iTTE5LjQ4NiA3LjkwNmMuMDE2LjExNy0uMjE1LjQzLS41MTYuNDcycy0uNTYtLjIwMi0uNTc1LS4zMi4yMTUtLjI0Ni41MTYtLjI4OC41Ni4wMi41NzUuMTM2eiIgc3Ryb2tlLXdpZHRoPSIuMTE5Ii8+PC9nPjxwYXRoIGQ9Ik0yMC41NjIgNy4wOTVjLjA1LjkyLS4xOTggMS41NDUtLjIzIDIuNTI0LS4wNDYgMS40MjIuNjc4IDMuMDUtLjQxMyA0LjY4IiBjbGFzcz0iQiBDIEUiLz48L2c+PC9zdmc+;aspect=fixed;" parent="1" vertex="1"><mxGeometry x="771.87" y="194" width="40.26" height="42" as="geometry"/></mxCell><mxCell id="111" value="" style="shape=cylinder3;whiteSpace=wrap;html=1;boundedLbl=1;backgroundOutline=1;size=15;fontColor=#FFFFFF;strokeColor=#000000;strokeWidth=3;fillColor=none;align=left;" vertex="1" parent="1"><mxGeometry x="551" y="158" width="64" height="89" as="geometry"/></mxCell><mxCell id="112" value="" style="html=1;endArrow=block;elbow=vertical;startArrow=none;endFill=1;strokeColor=#545B64;rounded=0;fontColor=#000000;exitX=0.25;exitY=0;exitDx=0;exitDy=0;strokeWidth=3;entryX=1;entryY=1;entryDx=0;entryDy=-15;entryPerimeter=0;shape=link;" edge="1" parent="1" source="11" target="111"><mxGeometry width="100" relative="1" as="geometry"><mxPoint x="732.75" y="283" as="sourcePoint"/><mxPoint x="771" y="241.99999999999977" as="targetPoint"/></mxGeometry></mxCell><mxCell id="113" value="" style="shape=image;verticalLabelPosition=bottom;labelBackgroundColor=#ffffff;verticalAlign=top;aspect=fixed;imageAspect=0;image=data:image/svg+xml,PHN2ZyB4bWxucz0iaHR0cDovL3d3dy53My5vcmcvMjAwMC9zdmciIHdpZHRoPSIyNTYiIGhlaWdodD0iMjE4LjU4NjkxNDA2MjUiIHZpZXdCb3g9IjAgMC41ODQwMjI1MjE5NzI2NTYyIDI1NiAyMTguNTg2OTE0MDYyNSIgcHJlc2VydmVBc3BlY3RSYXRpbz0ieE1pbllNaW4gbWVldCI+PHBhdGggZD0iTTI0NS45NyAxNjguOTQzYy0xMy42NjIgNy4xMjEtODQuNDM0IDM2LjIyLTk5LjUwMSA0NC4wNzUtMTUuMDY3IDcuODU2LTIzLjQzNyA3Ljc4LTM1LjM0IDIuMDktMTEuOTAyLTUuNjktODcuMjE2LTM2LjExMi0xMDAuNzgzLTQyLjU5N0MzLjU2NiAxNjkuMjcxIDAgMTY2LjUzNSAwIDE2My45NTF2LTI1Ljg3NnM5OC4wNS0yMS4zNDUgMTEzLjg3OS0yNy4wMjRjMTUuODI4LTUuNjc5IDIxLjMyLTUuODg0IDM0Ljc5LS45NSAxMy40NzIgNC45MzYgOTQuMDE4IDE5LjQ2OCAxMDcuMzMxIDI0LjM0NGwtLjAwNiAyNS41MWMuMDAyIDIuNTU4LTMuMDcgNS4zNjQtMTAuMDI0IDguOTg4IiBmaWxsPSIjOTEyNjI2Ii8+PHBhdGggZD0iTTI0NS45NjUgMTQzLjIyYy0xMy42NjEgNy4xMTgtODQuNDMxIDM2LjIxOC05OS40OTggNDQuMDcyLTE1LjA2NiA3Ljg1Ny0yMy40MzYgNy43OC0zNS4zMzggMi4wOS0xMS45MDMtNS42ODYtODcuMjE0LTM2LjExMy0xMDAuNzgtNDIuNTk0LTEzLjU2Ni02LjQ4NS0xMy44NS0xMC45NDgtLjUyNC0xNi4xNjYgMTMuMzI2LTUuMjIgODguMjI0LTM0LjYwNSAxMDQuMDU1LTQwLjI4NCAxNS44MjgtNS42NzcgMjEuMzE5LTUuODg0IDM0Ljc4OS0uOTQ4IDEzLjQ3MSA0LjkzNCA4My44MTkgMzIuOTM1IDk3LjEzIDM3LjgxIDEzLjMxNiA0Ljg4MSAxMy44MjcgOC45LjE2NiAxNi4wMiIgZmlsbD0iI0M2MzAyQiIvPjxwYXRoIGQ9Ik0yNDUuOTcgMTI3LjA3NGMtMTMuNjYyIDcuMTIyLTg0LjQzNCAzNi4yMi05OS41MDEgNDQuMDc4LTE1LjA2NyA3Ljg1My0yMy40MzcgNy43NzctMzUuMzQgMi4wODctMTEuOTAzLTUuNjg3LTg3LjIxNi0zNi4xMTItMTAwLjc4My00Mi41OTdDMy41NjYgMTI3LjQwMiAwIDEyNC42NyAwIDEyMi4wODVWOTYuMjA2czk4LjA1LTIxLjM0NCAxMTMuODc5LTI3LjAyM2MxNS44MjgtNS42NzkgMjEuMzItNS44ODUgMzQuNzktLjk1QzE2Mi4xNDIgNzMuMTY4IDI0Mi42ODggODcuNjk3IDI1NiA5Mi41NzRsLS4wMDYgMjUuNTEzYy4wMDIgMi41NTctMy4wNyA1LjM2My0xMC4wMjQgOC45ODciIGZpbGw9IiM5MTI2MjYiLz48cGF0aCBkPSJNMjQ1Ljk2NSAxMDEuMzUxYy0xMy42NjEgNy4xMi04NC40MzEgMzYuMjE4LTk5LjQ5OCA0NC4wNzUtMTUuMDY2IDcuODU0LTIzLjQzNiA3Ljc3Ny0zNS4zMzggMi4wODctMTEuOTAzLTUuNjg2LTg3LjIxNC0zNi4xMTItMTAwLjc4LTQyLjU5NC0xMy41NjYtNi40ODMtMTMuODUtMTAuOTQ3LS41MjQtMTYuMTY3QzIzLjE1MSA4My41MzUgOTguMDUgNTQuMTQ4IDExMy44OCA0OC40N2MxNS44MjgtNS42NzggMjEuMzE5LTUuODg0IDM0Ljc4OS0uOTQ5IDEzLjQ3MSA0LjkzNCA4My44MTkgMzIuOTMzIDk3LjEzIDM3LjgxIDEzLjMxNiA0Ljg4IDEzLjgyNyA4LjkuMTY2IDE2LjAyIiBmaWxsPSIjQzYzMDJCIi8+PHBhdGggZD0iTTI0NS45NyA4My42NTNjLTEzLjY2MiA3LjEyLTg0LjQzNCAzNi4yMi05OS41MDEgNDQuMDc4LTE1LjA2NyA3Ljg1NC0yMy40MzcgNy43NzctMzUuMzQgMi4wODctMTEuOTAzLTUuNjg3LTg3LjIxNi0zNi4xMTMtMTAwLjc4My00Mi41OTVDMy41NjYgODMuOTggMCA4MS4yNDcgMCA3OC42NjV2LTI1Ljg4czk4LjA1LTIxLjM0MyAxMTMuODc5LTI3LjAyMWMxNS44MjgtNS42OCAyMS4zMi01Ljg4NCAzNC43OS0uOTVDMTYyLjE0MiAyOS43NDkgMjQyLjY4OCA0NC4yNzggMjU2IDQ5LjE1NWwtLjAwNiAyNS41MTJjLjAwMiAyLjU1NS0zLjA3IDUuMzYxLTEwLjAyNCA4Ljk4NiIgZmlsbD0iIzkxMjYyNiIvPjxwYXRoIGQ9Ik0yNDUuOTY1IDU3LjkzYy0xMy42NjEgNy4xMi04NC40MzEgMzYuMjItOTkuNDk4IDQ0LjA3NC0xNS4wNjYgNy44NTQtMjMuNDM2IDcuNzc3LTM1LjMzOCAyLjA5Qzk5LjIyNyA5OC40MDQgMjMuOTE1IDY3Ljk4IDEwLjM1IDYxLjQ5Ny0zLjIxNyA1NS4wMTUtMy41IDUwLjU1IDkuODI1IDQ1LjMzMSAyMy4xNTEgNDAuMTEzIDk4LjA1IDEwLjczIDExMy44OCA1LjA1YzE1LjgyOC01LjY3OSAyMS4zMTktNS44ODMgMzQuNzg5LS45NDggMTMuNDcxIDQuOTM1IDgzLjgxOSAzMi45MzQgOTcuMTMgMzcuODExIDEzLjMxNiA0Ljg3NiAxMy44MjcgOC44OTcuMTY2IDE2LjAxNyIgZmlsbD0iI0M2MzAyQiIvPjxwYXRoIGQ9Ik0xNTkuMjgzIDMyLjc1N2wtMjIuMDEgMi4yODUtNC45MjcgMTEuODU2LTcuOTU4LTEzLjIzLTI1LjQxNS0yLjI4NCAxOC45NjQtNi44MzktNS42OS0xMC40OTggMTcuNzU1IDYuOTQ0IDE2LjczOC01LjQ4LTQuNTI0IDEwLjg1NSAxNy4wNjcgNi4zOTFNMTMxLjAzMiA5MC4yNzVMODkuOTU1IDczLjIzOGw1OC44Ni05LjAzNS0xNy43ODMgMjYuMDcyTTc0LjA4MiAzOS4zNDdjMTcuMzc1IDAgMzEuNDYgNS40NiAzMS40NiAxMi4xOTQgMCA2LjczNi0xNC4wODUgMTIuMTk1LTMxLjQ2IDEyLjE5NXMtMzEuNDYtNS40Ni0zMS40Ni0xMi4xOTVjMC02LjczNCAxNC4wODUtMTIuMTk0IDMxLjQ2LTEyLjE5NCIgZmlsbD0iI0ZGRiIvPjxwYXRoIGQ9Ik0xODUuMjk1IDM1Ljk5OGwzNC44MzYgMTMuNzY2LTM0LjgwNiAxMy43NTMtLjAzLTI3LjUyIiBmaWxsPSIjNjIxQjFDIi8+PHBhdGggZD0iTTE0Ni43NTUgNTEuMjQzbDM4LjU0LTE1LjI0NS4wMyAyNy41MTktMy43NzkgMS40NzgtMzQuNzkxLTEzLjc1MiIgZmlsbD0iIzlBMjkyOCIvPjwvc3ZnPg==;" vertex="1" parent="1"><mxGeometry x="559.5699999999999" y="195.89999999999998" width="46.87" height="40.1" as="geometry"/></mxCell><mxCell id="114" value="" style="shape=image;verticalLabelPosition=bottom;labelBackgroundColor=#ffffff;verticalAlign=top;aspect=fixed;imageAspect=0;image=data:image/svg+xml,PHN2ZyB4bWxucz0iaHR0cDovL3d3dy53My5vcmcvMjAwMC9zdmciIHdpZHRoPSI5MS4zOTA5OTg4NDAzMzIwMyIgaGVpZ2h0PSI0OS40NjI5ODk4MDcxMjg5MDYiIHZpZXdCb3g9IjkuNjQyOTk5NjQ5MDQ3ODUyIDQuNjAyMDAwMjM2NTExMjMwNSA5MS4zOTA5OTg4NDAzMzIwMyA0OS40NjI5ODk4MDcxMjg5MDYiIG92ZXJmbG93PSJ2aXNpYmxlIj48cGF0aCBkPSJNNTUuMzUgNC42MDJjLTkuMjMgMC0xNi43MTMgNy40ODItMTYuNzEzIDE2LjcxM1M0Ni4xMiAzOC4wMjggNTUuMzUgMzguMDI4czE2LjcxMy03LjQ4MyAxNi43MTMtMTYuNzEzUzY0LjU4IDQuNjAyIDU1LjM1IDQuNjAyem0wIDMxLjI4Yy0yLjYyNiAwLTQuNzU1LTEuNzU0LTQuNzU1LTMuOTE4aDkuNTFjMCAyLjE2My0yLjEzIDMuOTE4LTQuNzU1IDMuOTE4em03Ljg1NC01LjIxNWgtMTUuNzF2LTIuODVoMTUuN3YyLjg1em0tLjA1Ni00LjMxNUg0Ny41NGwtLjE1NS0uMThjLTEuNjA4LTEuOTUzLTEuOTg3LTIuOTcyLTIuMzU0LTQuMDEtLjAwNi0uMDM0IDEuOTUuNCAzLjMzNy43MTJhNDIuMTkgNDIuMTkgMCAwIDAgMS43NTcuMzU1Yy0xLjAwMi0xLjE3NC0xLjU5Ny0yLjY2Ny0xLjU5Ny00LjE5MyAwLTMuMzUgMi41Ny02LjI3OCAxLjY0Mi04LjY0NC45MDIuMDczIDEuODY3IDEuOTA0IDEuOTMyIDQuNzY3Ljk2LTEuMzI1IDEuMzYtMy43NDYgMS4zNi01LjIzIDAtMS41MzcgMS4wMTMtMy4zMjIgMi4wMjUtMy4zODMtLjkwMyAxLjQ4OC4yMzQgMi43NjQgMS4yNDQgNS45MjguMzggMS4xOS4zMyAzLjE5LjYyMyA0LjQ1Ny4wOTctMi42MzUuNTUtNi40OCAyLjIyMi03LjgwNi0uNzM3IDEuNjcuMTEgMy43NjMuNjg4IDQuNzY4LjkzNCAxLjYyMiAxLjUgMi44NSAxLjUgNS4xNzYgMCAxLjU2LS41NzUgMy4wMjYtMS41NDYgNC4xNzMgMS4xMDQtLjIwNyAxLjg2Ni0uMzk0IDEuODY2LS4zOTRsMy41ODQtLjdjMCAwLS41MiAyLjE0LTIuNTIyIDQuMjA0eiIgZmlsbD0iI2RhNGUzMSIvPjxwYXRoIGQ9Ik05LjY0MyA0MS41MjRjLjc3OC0uMTMgMS43OTctLjI0IDMuMDkzLS4yNCAxLjU5MyAwIDIuNzYuMzcgMy41IDEuMDM3LjY2Ny41OTMgMS4wOTMgMS41IDEuMDkzIDIuNjEyIDAgMS4xMy0uMzMzIDIuMDItLjk2MyAyLjY2Ny0uODcuOTA4LTIuMjQgMS4zNy0zLjgxNiAxLjM3LS40ODIgMC0uOTI2LS4wMi0xLjI5Ny0uMXY1aC0xLjZ6bTEuNiA2LjAyYy4zNTIuMDkzLjc5Ny4xMyAxLjMzNC4xMyAxLjk0NSAwIDMuMTMtLjk2MyAzLjEzLTIuNjUgMC0xLjY2Ny0xLjE4NS0yLjQ2My0yLjk0NS0yLjQ2My0uNzA0IDAtMS4yNC4wNTYtMS41Mi4xM3ptNy44OTMuMTQ4bC0uMDc0LTIuNzk3aDEuNDI2bC4wNzQgMS43NzhoLjA1NmMuNDA4LTEuMjA0IDEuNDA4LTEuOTY0IDIuNS0xLjk2NC4xNjcgMCAuMjk2LjAyLjQ0NS4wMzd2MS41MzdjLS4xNjctLjAzNy0uMzMzLS4wMzctLjU1Ni0uMDM3LTEuMTQ4IDAtMS45NjMuODUyLTIuMTg2IDIuMDc1YTQuODggNC44OCAwIDAgMC0uMDU2Ljc2djQuNzhoLTEuNjN2LTYuMTY4em0xMy45OTQgMS42YzAgMy4zMTYtMi4zMTUgNC43Ni00LjQ2NCA0Ljc2LTIuNDA4IDAtNC4yOTctMS43NzgtNC4yOTctNC42MTIgMC0yLjk4MiAxLjk4Mi00Ljc0MiA0LjQ0Ni00Ljc0MiAyLjU3NSAwIDQuMzE2IDEuODcgNC4zMTYgNC41OTR6bS03LjA5NC4wOTNjMCAxLjk2NCAxLjEgMy40NDUgMi43MDQgMy40NDUgMS41NTYgMCAyLjcyMy0xLjQ2MyAyLjcyMy0zLjQ4MiAwLTEuNTItLjc2LTMuNDI3LTIuNjg2LTMuNDI3LTEuOTA4IDAtMi43NCAxLjc3OC0yLjc0IDMuNDY0em05LjE1Mi0yLjA3NmwtLjA3NC0yLjQyNmgxLjQyNmwuMDc0IDEuNDYzaC4wNTZjLjUtLjg1MiAxLjMzNC0xLjY1IDIuODM0LTEuNjUgMS4yMDQgMCAyLjEzLjc0IDIuNTIgMS43OTdoLjAzN2EzLjU0IDMuNTQgMCAwIDEgMS4wMTktMS4xNjdjLjUzNy0uNDA3IDEuMS0uNjMgMS45NjMtLjYzIDEuMjA0IDAgMi45NjQuNzc4IDIuOTY0IDMuOXY1LjI2aC0xLjU5M1Y0OC44YzAtMS43NC0uNjUtMi43Ni0xLjk0NS0yLjc2LS45NDUgMC0xLjY1LjY4NS0xLjk0NSAxLjQ2M2EyLjc5IDIuNzkgMCAwIDAtLjEzLjgxNXY1LjUzOEg0MC44di01LjM3YzAtMS40MjYtLjYzLTIuNDQ1LTEuODctMi40NDUtMSAwLTEuNzYuODE1LTIuMDIgMS42My0uMDkzLjIyMi0uMTMuNTItLjEzLjc5N3Y1LjRoLTEuNTkzdi02LjU0em0xNi4zNTcgMi4zNTVjLjAzNyAyLjIwNCAxLjQyNiAzLjExMiAzLjA3NSAzLjExMiAxLjE2NyAwIDEuOS0uMjA0IDIuNDgyLS40NjNsLjI5NiAxLjE2N2MtLjU3NC4yNi0xLjU3NC41NzQtMyAuNTc0LTIuNzYgMC00LjQwOC0xLjgzNC00LjQwOC00LjUzOHMxLjU5My00LjgxNiA0LjIwNS00LjgxNmMyLjk0NSAwIDMuNzA1IDIuNTU2IDMuNzA1IDQuMjA1YTQuMDcgNC4wNyAwIDAgMS0uMDU2Ljc2em00Ljc4LTEuMTY3Yy4wMi0xLjAyLS40MjYtMi42My0yLjI2LTIuNjMtMS42NjcgMC0yLjM3IDEuNS0yLjUgMi42M3ptNS41NTUtNS43NnYyLjE1aDIuMzM0djEuMjRINjEuODh2NC44MzVjMCAxLjEuMzE1IDEuNzQgMS4yMjMgMS43NC40NDUgMCAuNzA0LS4wMzcuOTQ1LS4xbC4wNzQgMS4yNGMtLjMxNS4xLS44MTUuMjIyLTEuNDQ1LjIyMi0uNzYgMC0xLjM3LS4yNi0xLjc2LS42ODUtLjQ0NS0uNS0uNjMtMS4yOTctLjYzLTIuMzUzdi00LjlINTguOXYtMS4yNGgxLjRWNDMuMjN6bTQuMTctMi4wNDdoMS42M3Y1LjYxM2guMDM3YTMuMDcgMy4wNyAwIDAgMSAxLjE2Ny0xLjE2NyAzLjM0IDMuMzQgMCAwIDEgMS42NjctLjQ0NWMxLjIwNCAwIDMuMTMuNzQgMy4xMyAzLjgxNnY1LjMzNGgtMS42M1Y0OC43YzAtMS40NDUtLjUzNy0yLjY1LTIuMDc1LTIuNjUtMS4wNTYgMC0xLjg3Ljc0LTIuMTg2IDEuNi0uMDkyLjI0LS4xLjQ4Mi0uMS43Nzh2NS40aC0xLjYzVjQwLjd6bTExLjE4OCA4Ljk2NGMuMDM3IDIuMjA0IDEuNDI2IDMuMTEyIDMuMDc1IDMuMTEyIDEuMTY3IDAgMS45LS4yMDQgMi40ODItLjQ2M2wuMjk2IDEuMTY3Yy0uNTc0LjI2LTEuNTc0LjU3NC0zIC41NzQtMi43NiAwLTQuNC0xLjgzNC00LjQtNC41MzhzMS41OTMtNC44MTYgNC4yMDUtNC44MTZjMi45NDUgMCAzLjcwNSAyLjU1NiAzLjcwNSA0LjIwNWEzLjk2IDMuOTYgMCAwIDEtLjA1Ni43NnptNC43OC0xLjE2N2MuMDItMS4wMi0uNDI2LTIuNjMtMi4yNi0yLjYzLTEuNjY3IDAtMi4zNyAxLjUtMi41IDIuNjN6bTExLjA5NCAyLjkxbC4wNzQgMi40NjRIOTEuNzRsLS4wOTMtMS40NjNIOTEuNmMtLjQwOC43MjItMS4zNyAxLjY2Ny0yLjk2NCAxLjY2Ny0xLjQwOCAwLTMuMDkzLS43OTctMy4wOTMtMy45Mjd2LTUuMjQyaDEuNjN2NC45NDVjMCAxLjcwNC41MzcgMi44NyAyIDIuODcgMS4wOTMgMCAxLjg1Mi0uNzYgMi4xNS0xLjVhMi4yNCAyLjI0IDAgMCAwIC4xNDgtLjgzNHYtNS40ODNoMS42M3ptMi40ODMuODE0Yy41LjI5NiAxLjM1Mi42MyAyLjE2Ny42MyAxLjE2NyAwIDEuNzIyLS41NzQgMS43MjItMS4zMzQgMC0uNzc4LS40NjMtMS4xODUtMS42NS0xLjYzLTEuNjMtLjU5My0yLjQtMS40NjMtMi40LTIuNTM4IDAtMS40NDUgMS4xODUtMi42MyAzLjA5My0yLjYzLjkwOCAwIDEuNzA0LjI0IDIuMTg2LjU1NmwtLjQgMS4xODVjLS4zNTItLjIyMi0xLS41MzctMS44MzQtLjUzNy0uOTYzIDAtMS40ODIuNTU2LTEuNDgyIDEuMjIzIDAgLjc0LjUxOCAxLjA3NCAxLjY4NSAxLjUzNyAxLjUzNy41NzQgMi4zNTIgMS4zNTIgMi4zNTIgMi42ODYgMCAxLjU5My0xLjI0IDIuNzA0LTMuMzM0IDIuNzA0LS45ODIgMC0xLjktLjI2LTIuNTItLjYzeiIgZmlsbD0iI2U2NTIyYyIvPjwvc3ZnPg==;" vertex="1" parent="1"><mxGeometry x="1350" y="922.63" width="104.68" height="56.37" as="geometry"/></mxCell><mxCell id="115" value="" style="shape=image;verticalLabelPosition=bottom;labelBackgroundColor=#ffffff;verticalAlign=top;aspect=fixed;imageAspect=0;image=data:image/svg+xml,PHN2ZyB4bWxucz0iaHR0cDovL3d3dy53My5vcmcvMjAwMC9zdmciIHZpZXdCb3g9IjIwLjkwODcyMTkyMzgyODEyNSAyNi43MDQwMDA0NzMwMjI0NiA4NC43NDA0NDAzNjg2NTIzNCAyNC42Mjk0MDc4ODI2OTA0MyIgd2lkdGg9Ijg0Ljc0MDQ0MDM2ODY1MjM0IiBoZWlnaHQ9IjI0LjYyOTQwNzg4MjY5MDQzIj48cGF0aCBkPSJNMzMuNTUgMzIuMmMtLjc0OCAwLTEuNTMtLjEzMy0xLjIzIDEuMDgtNC40Ny0xLjk5NC03LjU5NC0xLjU0NS05LjkyIDEuMzYzLTEuOTc3IDIuNDkzLTEuOTk0IDYuMDE1LS4wMTcgOC42MjQgMi4yIDIuOTA4IDUuNDUgMy40NTYgOS43NyAxLjYyOC4wNjYgMS40NDYtLjgzIDIuNjYtMi4zNzYgMy4wNTgtMi4xNi41NjUtNC4wNy4xMzMtNS41MTctMS42NzgtLjMtLjM4Mi0uNTE1LS40NjUtLjkxNC0uMTE2LS41MzIuNDgyLTEuMTEzLjkxNC0xLjY5NSAxLjMzLS40LjI4Mi0uMzUuNDgyLS4wMzMuODE0IDIuMTYgMi40MjYgNC45MDIgMy4xNzQgOC4wNDMgMi43NDIgMS42NjItLjIzMyAzLjE3NC0uNzk4IDQuMjg3LTIuMTI3IDEuMTgtMS4zOTYgMS41OC0zLjEgMS41OTUtNC44N2wuMDE3LTkuODg3Yy0uMDE3LTEuOTYtLjAxNy0xLjk0NC0yLTEuOTZ6bS01LjI4NCAxMC43ODRjLTIuMjYtLjAxNy0zLjkyMi0xLjc0NS0zLjkwNS00LjA1NS4wMTctMi4yIDEuNzI4LTMuODg4IDMuOTg4LTMuOTA1IDIuMTYgMCAzLjkyMiAxLjgyOCAzLjkwNSA0LjA4OC0uMDE3IDIuMi0xLjc2IDMuOTA1LTMuOTg4IDMuODcyeiIgZmlsbD0iIzhjOGQ5MSIvPjxwYXRoIGQ9Ik0xMDUuNTE4IDMyLjczN2MtLjY2NS0uMDUtMS4zNDYtLjE1LTEuOTc3LjAxNy0uNC4xLS4xMTYuNjgtLjE4MyAxLjA0Ny0uMDUuMjUuMDgzLjUzMi0uMS43OC0yLjY0Mi0yLjgwOC02Ljg5Ni0yLjk1OC05LjY1NS0uMzY2cy0yLjgwOCA2LjgzLS4yIDkuNzA0YzIuMTkzIDIuNDI2IDcuMzI4IDIuOTU4IDkuOTItLjE1LjExNiAyLjA2LS4xMzMgMy44MDUtMS45OTQgNC44Ny0xLjkgMS4wOC00LjcwMy44MTQtNi40MTQtLjU2NS0uMzgyLS4zLS42My0uOTgtMS4wOTctLjg5N3MtLjgzLjYxNS0xLjI2My44OTdjLS40NjUuMy0uMzgyLjUxNS0uMDMzLjg4IDIuNDkzIDIuNTI2IDcuMTggMy4xNTcgMTAuMjUzIDEuMzMuODk3LS41MzIgMS41OTUtMS4yOCAyLjA2LTIuMi41MzItMS4wNjMuNzgtMi4xOTMuNzgtMy4zNzNsLjAxNy0xMS40NjZjMC0uMTY2LjA4My0uNDgyLS4xMTYtLjV6bS02Ljg4IDExLjJjLTIuNjYtLjAxNy00Ljc3LTIuMTc3LTQuNzM2LTQuODUyLjAzMy0yLjU2IDIuMTc3LTQuNTg2IDQuODAyLTQuNTg2IDIuNTQyLjAxNyA0LjY1MyAyLjE2IDQuNjM2IDQuNzdhNC42NyA0LjY3IDAgMCAxLTQuNzAzIDQuNjY5eiIgZmlsbD0iI2M1MjIyYiIvPjxwYXRoIGQ9Ik01Ni40OCAzNy4wNThjMC0yLjQ2LTEuMTk2LTQuMDctMy41NzMtNC43MzYtMi42LS43My01LjEzNS0uNC03LjYuNjMtLjQxNS4xODMtLjQuMzUtLjIxNi42OGwuODY0IDEuNjk1Yy4yMTYuNS40NjUuNjMuOTk3LjM1IDEuMjgtLjcxNSAyLjY3NS0uODMgNC4xMDQtLjY4IDEuMzk2LjE1IDIuMDYuNzQ4IDIuMTYgMi4wNzctMS45Ni0uOTk3LTMuOTIyLTEuMDQ3LTUuODgyLS40MTUtMi4wMjcuNjQ4LTMuMyAyLjA3Ny0zLjQyMyA0LjIzNy0uMTE2IDEuOTI4Ljc0OCAzLjQ1NiAyLjQ2IDQuMzg3IDEuODYgMS4wMTQgMy44NCAxLjE0NyA1Ljg2Ni41LjQ1LS4xNS45My0uNzQ4IDEuMzguMDMzLjAzMy4wNjYuMjY2LjAzMy40LjAzMy41ODIgMCAxLjE2My0uMDUgMS43NDUuMDE3LjY0OC4wNjYuNzgtLjIxNi43NjQtLjgxNGwtLjAzMy03Ljk5M3ptLTQuMTU0IDUuNjY2Yy0xLjM2My42My0yLjc0Mi41ODItNC4wODgtLjAxNy0uNjE1LS4yNjYtLjk2NC0uODE0LS45My0xLjUzLjAxNy0uNjk4LjM1LTEuMTk2Ljk2NC0xLjUzLjY2NS0uMzUgMS4zNjMtLjQgMi4wOTQtLjM4Mi42MyAwIDEuMjYzLjAzMyAxLjg2LjMxNi42NjUuMzE2IDEuMDQ3Ljc5OCAxLjA4IDEuNTMuMDMzLjc2NC0uMzE2IDEuMjk2LS45OCAxLjYxMnptMTMuMzI4LTcuOTQ0bC0uMDgzLjIzMy0yLjU0MiA1Ljk4Mi0uNDMyLS45NjQtMy03LjE5NWMtLjItLjQ4Mi0uNDY1LS42OC0uOTgtLjY0OC0uNzE1LjA1LTEuNDQ2LjAzMy0yLjE2IDAtLjYzLS4wMzMtLjc2NC4xLS41LjczbDQuOTAyIDExLjUxNmMuMi40NjUuMjMzLjg0Ny4wMTcgMS4zM2wtMS43NiA0LjEyYy0uMTY2LjM4Mi0uNC43NjQtLjQ1IDEuMjQ2bDIuNTYuMDE3Yy42NDguMDUuOTE0LS4yMTYgMS4xNjMtLjc2NGw0LjUzNi0xMC41MDIgMy4zMDctNy41OTRjLTMuMzU3LS40MTUtMy4zNzMtLjQxNS00LjU4NiAyLjQ5M3oiIGZpbGw9IiM4YzhkOTEiLz48cGF0aCBkPSJNODIuOTAyIDMyLjM1NWMtMy44NzItLjA2Ni03LjEzIDIuOTI1LTcuMTk1IDYuNjQ3LS4wODMgNC4wMiAyLjgyNSA3LjAzIDYuODYzIDcuMDggNC4yNTQuMDY2IDcuMjk1LTIuNzI1IDcuMzYtNi43NDcuMDY2LTMuODQtMy4wMDgtNi44OTYtNy4wMy02Ljk4em0tLjA4MyAxMS42Yy0yLjQ5MyAwLTQuNjUzLTIuMTYtNC42ODYtNC42NTMtLjAzMy0yLjY0MiAyLjA2LTQuNzg2IDQuNjg2LTQuNzg2IDIuNTc2IDAgNC42ODYgMi4wOTQgNC42ODYgNC43MDMgMCAyLjUyNi0yLjE3NyA0Ljc1Mi00LjY4NiA0LjczNnoiIGZpbGw9IiNjNjIxMjkiLz48cGF0aCBkPSJNNDQuNiAzNS4xOGMuMjUtLjM4Mi4wNS0xLjA2My4wNjYtMS42MjhWMzIuMzljLjAxNy0uMzE2LS4xMzMtLjQ1LS40MzItLjQ1LS44My4wMTctMS42NDUgMC0yLjQ2LjI1LS40MTUuMTMzLS44OC45NjQtMS4zMy4wMTctLjAzMy0uMDUtLjI2Ni0uMDE3LS40LS4wMTctLjY2NSAwLTEuMzMuMDMzLTEuOTk0LS4wMTctLjU2NS0uMDMzLS42OC4xODMtLjY4LjcxNWwuMDE3IDYuMDUtLjAxNyA2LjIxNWMwIC41LjE1LjY5OC42NjUuNjY1LjU5OC0uMDMzIDEuMjEzLS4wNSAxLjgyOCAwIC42OC4wNjYuODMtLjIuODMtLjgzdi03LjEzYy4wMTctMS42NDUuOTk3LTIuNjYgMi40MjYtMi43LjUgMCAxLjE4LjUxNSAxLjQ4LjAzM3oiIGZpbGw9IiM4YzhkOTEiLz48ZyBmaWxsPSIjYzYyMTI5Ij48cGF0aCBkPSJNNzUuMjc1IDQzLjkzN2MtLjAxNy0uMi0uMTMzLS4zLS4zMTYtLjI4Mi0xLjE2My4xMTYtMS42MjgtLjU4Mi0xLjg0NC0xLjU4bC0uMDUuMzMyaC0uMTVWMjYuNzIyaC0xLjhsLS4wMTcgMTQuOTU1YzAgLjMxNi4xMTYuNjY1LS4xMzMuOTY0LjA4MyAxLjY2Mi45NDcgMi43NDIgMi40OTMgMy4wNzQgMS42NzguMzY2IDEuOTk0LjA4MyAxLjg0NC0xLjU4LS4wMTctLjA4My0uMDE3LS4xMzMtLjAxNy0uMnoiLz48cGF0aCBkPSJNNzEuMDg4IDQxLjY2bC4wMTctMTQuOTU1Yy0uNDMyLjItLjIxNi41ODItLjIxNi44NDdsLS4wMTcgMTMuOTkyYzAgLjM1LjA1LjcxNS4wNjYgMS4wNjMuMjUtLjI2Ni4xNS0uNjE1LjE1LS45NDd6bTEuOTYuNzQ4bC4wNS0uMzMyLjAxNy0xNC44NGMwLS4xODMuMTUtLjQ2NS0uMjE2LS41MzJWNDIuNGEuNDYuNDYgMCAwIDAgLjE1LjAxN3oiLz48L2c+PHBhdGggZD0iTTg1LjIzIDM4LjMzN2MtLjM4Mi0uMTMzLS4zNjYuMy0uNDgyLjUzMi0uMDgzLjE2Ni0uMDE3LjQtLjMuNDgybC0uNjY1LTIuNjI2Yy0uMDUtLjE4My0uMDgzLS40MTUtLjM1LS4zNjYtLjIuMDMzLS4yLjIzMy0uMjMzLjRsLS4xNjYuOTgtLjQ2NSAyLjQ5M2MtLjI4Mi0uNTk4LS4zODItMS4xOTYtLjU0OC0xLjc3OC0uMS0uMzUuMDE3LS45NDctLjQtLjk5Ny0uNDUtLjA1LS40MzIuNTQ4LS41OTguODgtLjIzMy40MzItLjI4MiAxLjExMy0xLjA2My41NjUtLjE4My0uMTMzLS40MzIuMDMzLS41NjUuMjMzLS4xMzMuMTgzLS4xLjM4Mi4wMzMuNTQ4LjE1LjIuMzUuMjUuNTgyLjE2Ni41OTgtLjIxNiAxLjMzLS4yNSAxLjQ2Mi0xLjEzbC43NDggMi45MDhjLjA1LjIuMDMzLjUuMzE2LjUxNS4zNSAwIC4zMTYtLjMzMi4zNS0uNTY1bC41NjUtMy4zMjNoLjE2NmwuNTMyIDIuMDZjLjA1LjE4My4wODMuNDMyLjMxNi40NXMuMjE2LS4zMTYuMzUtLjQxNWMuMzMyLS4yNS0uMTgzLTEuMjMuNzgtLjkxNC4wMTcgMCAuMS0uMTE2LjEtLjE4My4wMzMtLjQxNS0uMTE2LS43OC0uNDY1LS45MTR6IiBmaWxsPSIjODg4ODhhIi8+PC9zdmc+;" vertex="1" parent="1"><mxGeometry x="1188.06" y="936.13" width="98.17" height="28.87" as="geometry"/></mxCell><mxCell id="40" value="Overlay" style="" parent="0"/><mxCell id="41" value="" style="shape=message;html=1;whiteSpace=wrap;html=1;outlineConnect=0;fontSize=13;fontColor=#FFFFFF;strokeColor=#000000;strokeWidth=3;fillColor=#FFFFFF;align=left;" parent="40" vertex="1"><mxGeometry x="776" y="612" width="37" height="27" as="geometry"/></mxCell><mxCell id="43" value="" style="shape=message;html=1;whiteSpace=wrap;html=1;outlineConnect=0;fontSize=13;fontColor=#FFFFFF;strokeColor=#000000;strokeWidth=3;fillColor=#FFFFFF;align=left;" parent="40" vertex="1"><mxGeometry x="775" y="315" width="37" height="27" as="geometry"/></mxCell></root></mxGraphModel></diagram></mxfile>